<svg width="190" height="190" viewBox="0 0 190 190" fill="none" xmlns="http://www.w3.org/2000/svg">
<path d="M171.868 45.1299C171.237 44.0804 170.582 43.0506 169.897 42.0436C160.778 28.6448 145.597 19.4716 130.843 15.317C124.38 13.4942 117.744 12.5408 111.119 12.2972C67.6686 10.7183 51.7063 46.5443 37.7071 55.7813C23.7079 65.0188 2.22496 80.7964 4.92068 113.94C6.96622 139.14 21.3021 163.236 47.4841 174.201C50.3679 175.412 53.398 176.464 56.5707 177.336C62.4724 178.96 68.8686 179.979 75.7607 180.286C95.5556 181.168 111.628 176.396 127.351 164.38C131.005 161.587 134.64 158.436 139.383 158.091C142.83 157.841 146.099 159.079 142.495 162.41C138.26 166.326 143.147 174.028 153.897 168.677C171.853 159.741 179.239 140.46 182.719 120.854C186.99 96.789 184.919 66.8618 171.868 45.1299Z" fill="#45A9EA"/>
<path opacity="0.7" d="M172.178 44.8834C171.548 43.8338 170.892 42.804 170.207 41.797C161.089 28.3982 145.908 19.225 131.154 15.0705C124.69 13.2476 118.054 12.2942 111.43 12.0506C67.9791 10.4717 52.0168 46.2977 38.0176 55.5348C24.0184 64.7722 2.5355 80.5498 5.23122 113.693C7.27676 138.893 21.6126 162.989 47.7946 173.954C50.6785 175.166 53.7086 176.217 56.8812 177.09C62.783 178.713 69.1791 179.732 76.0712 180.039C95.8662 180.921 111.939 176.149 127.661 164.133C131.316 161.34 134.951 158.19 139.693 157.845C143.141 157.594 146.409 158.832 142.806 162.164C138.571 166.08 143.457 173.781 154.208 168.43C172.163 159.494 179.55 140.213 183.029 120.607C187.301 96.5425 185.23 66.6152 172.178 44.8834Z" fill="#E2E1FF"/>
<path d="M164.451 51.9217C164.451 51.9217 162.457 43.6122 150.824 41.9501C139.19 40.2884 137.529 50.2596 135.202 51.5892C132.875 52.9188 131.546 49.2624 127.89 49.5949C124.233 49.9274 122.239 52.9188 120.577 54.2484C118.915 55.578 115.924 51.5896 113.597 52.2542C111.271 52.9188 109.276 56.2427 109.276 56.2427H176.75C176.75 56.2427 174.423 52.5867 171.099 51.2571C167.775 49.9274 166.445 51.9217 164.451 51.9217Z" stroke="#263238" stroke-miterlimit="10" stroke-linecap="round" stroke-linejoin="round"/>
<path d="M52.4348 76.874C52.4348 76.874 51.0052 70.9179 42.6665 69.7266C34.3278 68.5353 33.1365 75.6827 31.4687 76.6357C29.8008 77.5888 28.8478 74.9679 26.2273 75.2062C23.6065 75.4444 22.1769 77.5888 20.9856 78.5418C19.7943 79.4949 17.65 76.6357 15.9821 77.1123C14.3143 77.5888 12.8848 79.9714 12.8848 79.9714H61.25C61.25 79.9714 59.5822 77.3505 57.1996 76.3975C54.8174 75.4444 53.8643 76.874 52.4348 76.874Z" stroke="#263238" stroke-miterlimit="10" stroke-linecap="round" stroke-linejoin="round"/>
<path d="M74.1813 26.5422C74.1813 26.5422 73.2754 22.7681 67.9919 22.0134C62.7084 21.2587 61.9533 25.7876 60.8965 26.3914C59.8398 26.9952 59.2359 25.3346 57.5753 25.4855C55.9147 25.6363 55.0088 26.9952 54.2541 27.599C53.4995 28.2028 52.1406 26.3914 51.0838 26.6931C50.027 26.9952 49.1211 28.5046 49.1211 28.5046H79.7673C79.7673 28.5046 78.7106 26.844 77.2008 26.2401C75.6911 25.6367 75.0869 26.5422 74.1813 26.5422Z" stroke="#263238" stroke-miterlimit="10" stroke-linecap="round" stroke-linejoin="round"/>
<path d="M117.59 34.3231C122.414 34.3231 126.324 30.4126 126.324 25.5888C126.324 20.765 122.414 16.8545 117.59 16.8545C112.766 16.8545 108.855 20.765 108.855 25.5888C108.855 30.4126 112.766 34.3231 117.59 34.3231Z" stroke="#263238" stroke-miterlimit="10" stroke-linecap="round" stroke-linejoin="round"/>
<path d="M117.59 10.933V14.4856" stroke="#263238" stroke-miterlimit="10" stroke-linecap="round" stroke-linejoin="round"/>
<path d="M117.59 37.2837V40.8367" stroke="#263238" stroke-miterlimit="10" stroke-linecap="round" stroke-linejoin="round"/>
<path d="M128.163 15.3121L125.65 17.8247" stroke="#263238" stroke-miterlimit="10" stroke-linecap="round" stroke-linejoin="round"/>
<path d="M109.53 33.945L107.018 36.4572" stroke="#263238" stroke-miterlimit="10" stroke-linecap="round" stroke-linejoin="round"/>
<path d="M132.541 25.8848H128.988" stroke="#263238" stroke-miterlimit="10" stroke-linecap="round" stroke-linejoin="round"/>
<path d="M106.191 25.8848H102.638" stroke="#263238" stroke-miterlimit="10" stroke-linecap="round" stroke-linejoin="round"/>
<path d="M128.163 36.4572L125.65 33.945" stroke="#263238" stroke-miterlimit="10" stroke-linecap="round" stroke-linejoin="round"/>
<path d="M109.53 17.8247L107.018 15.3121" stroke="#263238" stroke-miterlimit="10" stroke-linecap="round" stroke-linejoin="round"/>
<path d="M138.65 74.1836C138.65 74.1836 140.404 73.7451 140.93 73.9202C141.456 74.0958 140.581 74.7175 140.581 74.7175C140.581 74.7175 141.018 74.9728 141.281 75.5865C141.544 76.2006 140.407 75.9361 140.407 75.9361C140.407 75.9361 140.755 76.3762 140.404 76.7269C140.053 77.0777 138.475 75.3236 138.475 75.3236C138.475 75.3236 137.334 76.0254 136.282 75.9377C135.229 75.8499 134.615 75.5869 133.913 74.5343C133.212 73.4817 132.685 72.9554 132.685 72.9554L131.983 72.6925L133.036 72.0784C133.036 72.0784 133.913 71.2891 134.79 71.3765C135.667 71.4643 136.018 71.7273 136.018 71.7273C136.018 71.7273 136.545 70.3239 137.334 69.7976C138.123 69.2713 140.579 68.5695 141.369 68.1309C142.158 67.6924 141.983 68.3943 141.719 68.8328C141.456 69.2713 140.667 69.6221 140.316 69.7976C139.965 69.9732 142.158 70.061 141.807 70.4995C141.456 70.938 140.14 71.1136 140.14 71.1136C140.14 71.1136 141.369 71.5521 141.105 71.9028C140.842 72.2536 139.79 72.2536 139.79 72.2536C139.79 72.2536 140.14 73.1306 139.614 73.1306C139.088 73.1306 139.088 73.1306 139.088 73.1306C139.088 73.1306 139.352 74.3591 138.65 74.1836Z" fill="#45A9EA" stroke="#263238" stroke-miterlimit="10" stroke-linecap="round" stroke-linejoin="round"/>
<path d="M136.018 71.7277C136.018 71.7277 135.317 70.3243 135.668 69.4473C136.018 68.5702 139.264 66.2895 139.176 67.1669C139.088 68.0439 138.211 68.5702 138.211 68.5702C138.211 68.5702 139.527 68.1317 139.527 68.4825C139.527 68.8332 139.527 68.8332 139.527 68.8332C139.527 68.8332 138.036 69.1839 137.334 69.798C136.633 70.4117 136.018 71.7277 136.018 71.7277Z" fill="#263238" stroke="#263238" stroke-miterlimit="10" stroke-linecap="round" stroke-linejoin="round"/>
<path d="M133.965 72.6719C134.109 72.6719 134.226 72.5551 134.226 72.4109C134.226 72.2667 134.109 72.1498 133.965 72.1498C133.821 72.1498 133.704 72.2667 133.704 72.4109C133.704 72.5551 133.821 72.6719 133.965 72.6719Z" fill="#263238"/>
<path d="M137.488 75.0918C137.33 75.6238 136.494 75.8446 135.62 75.5854C134.746 75.3263 134.166 74.6848 134.324 74.1528C134.482 73.6208 135.318 73.4 136.192 73.6592C137.066 73.9184 137.646 74.5598 137.488 75.0918Z" fill="white" stroke="#263238" stroke-width="0.5" stroke-miterlimit="10" stroke-linecap="round" stroke-linejoin="round"/>
<path d="M51.4035 51.702C51.4035 51.702 49.6491 51.2635 49.1228 51.4387C48.5965 51.6143 49.472 52.2359 49.472 52.2359C49.472 52.2359 49.0354 52.4913 48.772 53.105C48.5091 53.7191 49.646 53.4546 49.646 53.4546C49.646 53.4546 49.2983 53.8946 49.6491 54.2454C49.9998 54.5961 51.5787 52.842 51.5787 52.842C51.5787 52.842 52.7191 53.5439 53.7717 53.4561C54.8243 53.3683 55.4384 53.1054 56.1398 52.0528C56.8413 51.0002 57.368 50.4739 57.368 50.4739L58.0699 50.2105L57.0173 49.5965C57.0173 49.5965 56.1402 48.8072 55.2628 48.8946C54.3858 48.9824 54.0346 49.2453 54.0346 49.2453C54.0346 49.2453 53.5083 47.842 52.7191 47.3157C51.9298 46.7894 49.4735 46.0875 48.6842 45.649C47.895 45.2105 48.0702 45.912 48.3335 46.3509C48.5965 46.7894 49.3861 47.1401 49.7368 47.3157C50.0876 47.4913 47.895 47.5787 48.2457 48.0176C48.5965 48.4561 49.9124 48.6316 49.9124 48.6316C49.9124 48.6316 48.6842 49.0702 48.9476 49.4209C49.2109 49.7716 50.2631 49.7716 50.2631 49.7716C50.2631 49.7716 49.9124 50.6487 50.4387 50.6487C50.965 50.6487 50.965 50.6487 50.965 50.6487C50.965 50.6487 50.702 51.8776 51.4035 51.702Z" fill="#45A9EA" stroke="#263238" stroke-miterlimit="10" stroke-linecap="round" stroke-linejoin="round"/>
<path d="M54.0349 49.2461C54.0349 49.2461 54.7368 47.8428 54.3856 46.9657C54.0349 46.0887 50.7893 43.8079 50.8771 44.6853C50.9649 45.5624 51.8419 46.0887 51.8419 46.0887C51.8419 46.0887 50.5264 45.6502 50.5264 46.0009C50.5264 46.3516 50.5264 46.3516 50.5264 46.3516C50.5264 46.3516 52.0175 46.7024 52.7193 47.3165C53.4208 47.9302 54.0349 49.2461 54.0349 49.2461Z" fill="#263238" stroke="#263238" stroke-miterlimit="10" stroke-linecap="round" stroke-linejoin="round"/>
<path d="M55.8271 49.9293C55.8271 50.0737 55.9442 50.1904 56.0882 50.1904C56.2326 50.1904 56.3493 50.0734 56.3493 49.9293C56.3493 49.7849 56.2322 49.6683 56.0882 49.6683C55.9442 49.6683 55.8271 49.7853 55.8271 49.9293Z" fill="#263238"/>
<path d="M52.5649 52.6102C52.7226 53.1422 53.559 53.363 54.433 53.1039C55.3066 52.8443 55.8872 52.2033 55.7292 51.6713C55.5715 51.1393 54.7351 50.9185 53.8611 51.1776C52.9875 51.4368 52.4072 52.0782 52.5649 52.6102Z" fill="white" stroke="#263238" stroke-width="0.5" stroke-miterlimit="10" stroke-linecap="round" stroke-linejoin="round"/>
<path d="M46.6932 117.027C46.6932 117.027 43.2249 111.513 36.9393 108.253C30.6538 104.994 27.9736 101.775 31.2355 101.967C35.1932 102.2 44.1563 105.342 48.2303 116.401C49.9882 121.173 46.6932 117.027 46.6932 117.027Z" fill="#45A9EA" stroke="#263238" stroke-miterlimit="10" stroke-linecap="round" stroke-linejoin="round"/>
<path d="M46.4846 115.587C46.4846 115.587 43.3416 109.301 37.4053 106.274" stroke="#263238" stroke-miterlimit="10" stroke-linecap="round" stroke-linejoin="round"/>
<path d="M50.473 120.841C50.473 120.841 48.4906 115.296 49.6849 109.009C50.8793 102.722 50.0889 99.0196 48.4036 101.445C46.3588 104.388 43.5863 112.512 49.1696 121.583C51.5785 125.497 50.473 120.841 50.473 120.841Z" fill="#45A9EA" stroke="#263238" stroke-miterlimit="10" stroke-linecap="round" stroke-linejoin="round"/>
<path d="M49.5652 119.888C49.5652 119.888 46.8535 114.144 48.0182 108.235" stroke="#263238" stroke-miterlimit="10" stroke-linecap="round" stroke-linejoin="round"/>
<path d="M46.9496 114.254C46.9496 114.254 44.9671 108.71 46.1615 102.422C47.3558 96.1351 46.5654 92.4331 44.8801 94.8583C42.8353 97.8006 40.0629 105.926 45.6462 114.997C48.055 118.911 46.9496 114.254 46.9496 114.254Z" fill="#45A9EA" stroke="#263238" stroke-miterlimit="10" stroke-linecap="round" stroke-linejoin="round"/>
<path d="M46.484 115.586C46.484 115.586 43.3308 107.557 44.4955 101.648" stroke="#263238" stroke-miterlimit="10" stroke-linecap="round" stroke-linejoin="round"/>
<path d="M125.854 110.158C125.854 110.158 129.323 104.643 135.608 101.384C141.894 98.1244 144.574 94.9061 141.312 95.0977C137.354 95.3306 128.391 98.4732 124.317 109.532C122.559 114.303 125.854 110.158 125.854 110.158Z" fill="#45A9EA" stroke="#263238" stroke-miterlimit="10" stroke-linecap="round" stroke-linejoin="round"/>
<path d="M126.063 108.717C126.063 108.717 129.206 102.431 135.143 99.405" stroke="#263238" stroke-miterlimit="10" stroke-linecap="round" stroke-linejoin="round"/>
<path d="M122.074 113.971C122.074 113.971 124.057 108.427 122.863 102.139C121.668 95.8523 122.459 92.1504 124.144 94.5755C126.189 97.5179 128.961 105.643 123.378 114.714C120.969 118.628 122.074 113.971 122.074 113.971Z" fill="#45A9EA" stroke="#263238" stroke-miterlimit="10" stroke-linecap="round" stroke-linejoin="round"/>
<path d="M122.981 113.018C122.981 113.018 125.693 107.274 124.528 101.365" stroke="#263238" stroke-miterlimit="10" stroke-linecap="round" stroke-linejoin="round"/>
<path d="M125.598 107.385C125.598 107.385 127.58 101.84 126.386 95.5529C125.192 89.2658 125.982 85.5638 127.667 87.989C129.712 90.9317 132.485 99.0565 126.901 108.127C124.492 112.041 125.598 107.385 125.598 107.385Z" fill="#45A9EA" stroke="#263238" stroke-miterlimit="10" stroke-linecap="round" stroke-linejoin="round"/>
<path d="M126.063 108.717C126.063 108.717 129.217 100.688 128.052 94.7788" stroke="#263238" stroke-miterlimit="10" stroke-linecap="round" stroke-linejoin="round"/>
<path d="M127.437 90.4947H91.3146L71.1055 58.3589H107.228L127.437 90.4947Z" fill="#263238" stroke="#263238" stroke-miterlimit="10" stroke-linecap="round" stroke-linejoin="round"/>
<path d="M86.2881 89.3904H49.2646V122.094H86.2881V89.3904Z" fill="#C7C7C7" stroke="#263238" stroke-miterlimit="10" stroke-linecap="round" stroke-linejoin="round"/>
<path d="M123.311 122.094H86.2881V89.3905L105.108 59.4632L123.311 89.3905V122.094Z" fill="white" stroke="#263238" stroke-miterlimit="10" stroke-linecap="round" stroke-linejoin="round"/>
<path d="M94.3098 95.2523H90.6074V106.359H94.3098V95.2523Z" fill="#C7C7C7" stroke="#263238" stroke-miterlimit="10" stroke-linecap="round" stroke-linejoin="round"/>
<path d="M98.0119 95.2523H94.3096V106.359H98.0119V95.2523Z" fill="#263238" stroke="#263238" stroke-miterlimit="10" stroke-linecap="round" stroke-linejoin="round"/>
<path d="M101.714 95.2523H98.0117V106.359H101.714V95.2523Z" fill="#C7C7C7" stroke="#263238" stroke-miterlimit="10" stroke-linecap="round" stroke-linejoin="round"/>
<path d="M77.3411 95.2523H74.2559V106.359H77.3411V95.2523Z" fill="#919191" stroke="#263238" stroke-miterlimit="10" stroke-linecap="round" stroke-linejoin="round"/>
<path d="M80.426 95.2523H77.3408V106.359H80.426V95.2523Z" fill="#263238" stroke="#263238" stroke-miterlimit="10" stroke-linecap="round" stroke-linejoin="round"/>
<path d="M83.512 95.2523H80.4268V106.359H83.512V95.2523Z" fill="#919191" stroke="#263238" stroke-miterlimit="10" stroke-linecap="round" stroke-linejoin="round"/>
<path d="M54.51 95.2523H51.4248V106.359H54.51V95.2523Z" fill="#919191" stroke="#263238" stroke-miterlimit="10" stroke-linecap="round" stroke-linejoin="round"/>
<path d="M57.595 95.2523H54.5098V106.359H57.595V95.2523Z" fill="#263238" stroke="#263238" stroke-miterlimit="10" stroke-linecap="round" stroke-linejoin="round"/>
<path d="M60.6809 95.2523H57.5957V106.359H60.6809V95.2523Z" fill="#919191" stroke="#263238" stroke-miterlimit="10" stroke-linecap="round" stroke-linejoin="round"/>
<path d="M113.13 95.2523H109.428V106.359H113.13V95.2523Z" fill="#C7C7C7" stroke="#263238" stroke-miterlimit="10" stroke-linecap="round" stroke-linejoin="round"/>
<path d="M116.832 95.2523H113.13V106.359H116.832V95.2523Z" fill="#263238" stroke="#263238" stroke-miterlimit="10" stroke-linecap="round" stroke-linejoin="round"/>
<path d="M120.534 95.2523H116.832V106.359H120.534V95.2523Z" fill="#C7C7C7" stroke="#263238" stroke-miterlimit="10" stroke-linecap="round" stroke-linejoin="round"/>
<path d="M104.491 77.0492H102.022V83.8367H104.491V77.0492Z" fill="#C7C7C7" stroke="#263238" stroke-miterlimit="10" stroke-linecap="round" stroke-linejoin="round"/>
<path d="M106.958 77.0492H104.49V83.8367H106.958V77.0492Z" fill="#263238" stroke="#263238" stroke-miterlimit="10" stroke-linecap="round" stroke-linejoin="round"/>
<path d="M109.427 77.0492H106.959V83.8367H109.427V77.0492Z" fill="#C7C7C7" stroke="#263238" stroke-miterlimit="10" stroke-linecap="round" stroke-linejoin="round"/>
<path d="M47.2041 90.4947H86.9597L107.169 58.3589H67.4133L47.2041 90.4947Z" fill="#360B92" stroke="#263238" stroke-miterlimit="10" stroke-linecap="round" stroke-linejoin="round"/>
<path d="M78.2433 72.8745H62.5439V83.2637H78.2433V72.8745Z" fill="#C7C7C7" stroke="#263238" stroke-miterlimit="10" stroke-linecap="round" stroke-linejoin="round"/>
<path d="M78.2432 72.8745L89.0918 65.4238L78.2432 83.2637V72.8745Z" fill="white" stroke="#263238" stroke-miterlimit="10" stroke-linecap="round" stroke-linejoin="round"/>
<path d="M61.2861 73.2275H77.7295L89.0923 65.4238H72.6516L61.2861 73.2275Z" fill="#360B92" stroke="#263238" stroke-miterlimit="10" stroke-linecap="round" stroke-linejoin="round"/>
<path d="M68.8568 75.0804H66.3887V81.868H68.8568V75.0804Z" fill="#919191" stroke="#263238" stroke-miterlimit="10" stroke-linecap="round" stroke-linejoin="round"/>
<path d="M71.3245 75.0804H68.8564V81.868H71.3245V75.0804Z" fill="#263238" stroke="#263238" stroke-miterlimit="10" stroke-linecap="round" stroke-linejoin="round"/>
<path d="M73.7933 75.0804H71.3252V81.868H73.7933V75.0804Z" fill="#919191" stroke="#263238" stroke-miterlimit="10" stroke-linecap="round" stroke-linejoin="round"/>
<path d="M97.5973 53.485H96.2168V63.5683L97.5973 61.3388V53.485Z" fill="white" stroke="#263238" stroke-miterlimit="10" stroke-linecap="round" stroke-linejoin="round"/>
<path d="M96.2806 53.485H92.2002V63.5683H96.2806V53.485Z" fill="#C7C7C7" stroke="#263238" stroke-miterlimit="10" stroke-linecap="round" stroke-linejoin="round"/>
<path d="M72.5281 97.1196H63.0254V122.094H72.5281V97.1196Z" fill="#263238" stroke="#263238" stroke-miterlimit="10" stroke-linecap="round" stroke-linejoin="round"/>
<path d="M72.0266 109.575C72.0266 109.111 71.65 108.734 71.1857 108.734C70.7213 108.734 70.3447 109.111 70.3447 109.575C70.3447 110.039 70.7213 110.416 71.1857 110.416C71.65 110.416 72.0266 110.04 72.0266 109.575Z" fill="white" stroke="#263238" stroke-miterlimit="10" stroke-linecap="round" stroke-linejoin="round"/>
<path d="M47.3054 116.87C47.3054 116.87 39.3471 112.515 31.9154 111.706C24.4838 110.898 20.1841 114.36 20.2209 115.864C20.2578 117.367 25.4155 117.479 26.394 117.73C27.3725 117.982 33.3496 116.331 42.1701 118.427C50.9907 120.523 52.1204 120.954 52.1204 120.954L47.3054 116.87Z" fill="white" stroke="#263238" stroke-miterlimit="10" stroke-linecap="round" stroke-linejoin="round"/>
<path d="M43.9762 116.771C43.9762 116.771 35.6724 113.117 28.1986 112.951C20.7251 112.785 16.7393 116.605 16.9054 118.099C17.0714 119.594 22.2201 119.261 23.2164 119.428C24.2128 119.594 30.0256 117.434 38.9936 118.763C47.962 120.092 49.1244 120.424 49.1244 120.424L43.9762 116.771Z" fill="white" stroke="#263238" stroke-miterlimit="10" stroke-linecap="round" stroke-linejoin="round"/>
<path d="M150.125 113.697L138.594 110.574C138.594 110.574 130.426 104.088 120.577 104.809C110.728 105.529 101.839 109.373 98.9564 111.535C96.0737 113.697 92.4701 115.859 91.7496 116.34C91.0288 116.82 81.1796 114.177 75.8945 116.34C70.6095 118.502 66.5256 122.826 66.5256 122.826C66.5256 122.826 44.1843 116.1 38.6591 115.138C33.1339 114.177 26.6477 114.658 22.0831 118.021C17.5185 121.384 18.4796 123.546 20.8819 124.027C23.2843 124.507 23.7646 122.105 36.9772 125.709C50.1898 129.312 66.2851 138.681 72.7713 142.285C79.2575 145.888 90.0678 150.933 97.2748 148.771C104.482 146.609 124.181 139.162 128.745 139.162C133.309 139.162 147.963 140.123 147.963 140.123L150.125 113.697Z" fill="white" stroke="#263238" stroke-miterlimit="10" stroke-linecap="round" stroke-linejoin="round"/>
<path d="M143.854 129.589L133.943 139.103L147.963 140.122L143.854 129.589Z" fill="#263238" stroke="#263238" stroke-miterlimit="10" stroke-linecap="round" stroke-linejoin="round"/>
<path d="M66.5251 122.826C66.5251 122.826 64.2937 125.758 65.2342 129.559C65.8153 131.906 68.5558 131.386 73.538 130.389C78.5202 129.393 73.8701 128.728 85.4955 128.562C97.1208 128.396 109.577 128.064 110.241 128.064" stroke="#263238" stroke-miterlimit="10" stroke-linecap="round" stroke-linejoin="round"/>
<path d="M66.4414 130.973C66.4414 130.973 66.6629 129.457 68.2821 128.519C68.2821 128.519 71.0432 127.087 72.7817 127.087C74.5202 127.087 75.9517 128.928 75.4406 129.542" stroke="#263238" stroke-miterlimit="10" stroke-linecap="round" stroke-linejoin="round"/>
<path d="M81.3711 128.11V126.065" stroke="#263238" stroke-miterlimit="10" stroke-linecap="round" stroke-linejoin="round"/>
<path d="M82.3936 124.122C82.3936 124.122 82.7002 125.246 82.4958 126.985" stroke="#263238" stroke-miterlimit="10" stroke-linecap="round" stroke-linejoin="round"/>
<path d="M160.231 151.202H144.737C143.795 151.202 143.031 150.438 143.031 149.496V110.624C143.031 109.682 143.795 108.918 144.737 108.918H160.231V151.202Z" fill="#C2C1F9" stroke="#263238" stroke-miterlimit="10" stroke-linecap="round" stroke-linejoin="round"/>
<path d="M187.791 154.505H160.359C159.643 154.505 159.062 153.924 159.062 153.208V108.045C159.062 107.328 159.643 106.748 160.359 106.748H187.791V154.505Z" fill="#360B92" stroke="#263238" stroke-miterlimit="10" stroke-linecap="round" stroke-linejoin="round"/>
<path d="M145.416 112.793H158.203" stroke="#263238" stroke-miterlimit="10" stroke-linecap="round" stroke-linejoin="round"/>
<path d="M158.029 117.81H145.029" stroke="#263238" stroke-miterlimit="10" stroke-linecap="round" stroke-linejoin="round"/>
<path d="M144.573 126.933H153.468" stroke="#263238" stroke-miterlimit="10" stroke-linecap="round" stroke-linejoin="round"/>
<path d="M155.064 126.933H158.029" stroke="#263238" stroke-miterlimit="10" stroke-linecap="round" stroke-linejoin="round"/>
</svg>
