<svg width="16" height="16" viewBox="0 0 16 16" fill="none" xmlns="http://www.w3.org/2000/svg">
<path d="M15.5 10.75H15.25V8.75C15.2497 8.48489 15.1442 8.23074 14.9567 8.04328C14.7693 7.85582 14.5151 7.75035 14.25 7.75V3.5C14.2497 3.23489 14.1442 2.98074 13.9567 2.79328C13.7693 2.60582 13.5151 2.50035 13.25 2.5H2.75C2.48489 2.50035 2.23074 2.60582 2.04328 2.79328C1.85582 2.98074 1.75035 3.23489 1.75 3.5V7.75C1.48489 7.75035 1.23074 7.85582 1.04328 8.04328C0.855816 8.23074 0.750347 8.48489 0.75 8.75V10.75H0.5C0.433696 10.75 0.370107 10.7763 0.323223 10.8232C0.276339 10.8701 0.25 10.9337 0.25 11V12C0.25 12.0663 0.276339 12.1299 0.323223 12.1768C0.370107 12.2237 0.433696 12.25 0.5 12.25H0.75V13.25C0.75 13.3163 0.776339 13.3799 0.823223 13.4268C0.870107 13.4737 0.933696 13.5 1 13.5H1.75C1.80778 13.5 1.86378 13.48 1.90846 13.4434C1.95313 13.4067 1.98372 13.3557 1.995 13.2991L2.205 12.25H13.795L14.005 13.2991C14.0163 13.3557 14.0469 13.4067 14.0915 13.4434C14.1362 13.48 14.1922 13.5 14.25 13.5H15C15.0663 13.5 15.1299 13.4737 15.1768 13.4268C15.2237 13.3799 15.25 13.3163 15.25 13.25V12.25H15.5C15.5663 12.25 15.6299 12.2237 15.6768 12.1768C15.7237 12.1299 15.75 12.0663 15.75 12V11C15.75 10.9337 15.7237 10.8701 15.6768 10.8232C15.6299 10.7763 15.5663 10.75 15.5 10.75ZM2.25 3.5C2.25017 3.36745 2.30291 3.24037 2.39664 3.14664C2.49037 3.05291 2.61744 3.00017 2.75 3H13.25C13.3826 3.00017 13.5096 3.05291 13.6034 3.14664C13.6971 3.24037 13.7498 3.36745 13.75 3.5V7.75H13.25V6.75C13.2497 6.48489 13.1442 6.23074 12.9567 6.04328C12.7693 5.85582 12.5151 5.75035 12.25 5.75H9.25C8.98489 5.75035 8.73074 5.85582 8.54328 6.04328C8.35582 6.23074 8.25035 6.48489 8.25 6.75V7.75H7.75V6.75C7.74965 6.48489 7.64418 6.23074 7.45672 6.04328C7.26926 5.85582 7.01511 5.75035 6.75 5.75H3.75C3.48489 5.75035 3.23074 5.85582 3.04328 6.04328C2.85582 6.23074 2.75035 6.48489 2.75 6.75V7.75H2.25V3.5ZM12.75 6.75V7.75H8.75V6.75C8.75017 6.61744 8.80291 6.49037 8.89664 6.39664C8.99037 6.30291 9.11744 6.25017 9.25 6.25H12.25C12.3826 6.25017 12.5096 6.30291 12.6034 6.39664C12.6971 6.49037 12.7498 6.61744 12.75 6.75ZM7.25 6.75V7.75H3.25V6.75C3.25017 6.61744 3.30291 6.49037 3.39664 6.39664C3.49037 6.30291 3.61744 6.25017 3.75 6.25H6.75C6.88256 6.25017 7.00963 6.30291 7.10336 6.39664C7.19709 6.49037 7.24983 6.61744 7.25 6.75ZM1.25 8.75C1.25017 8.61744 1.30291 8.49037 1.39664 8.39664C1.49037 8.30291 1.61745 8.25017 1.75 8.25H14.25C14.3826 8.25017 14.5096 8.30291 14.6034 8.39664C14.6971 8.49037 14.7498 8.61744 14.75 8.75V10.75H1.25V8.75ZM1.545 13H1.25V12.25H1.695L1.545 13ZM14.75 13H14.455L14.305 12.25H14.75V13ZM15.25 11.75H0.75V11.25H15.25V11.75Z" fill="#333333"/>
</svg>
