<svg width="38" height="37" viewBox="0 0 38 37" fill="none" xmlns="http://www.w3.org/2000/svg">
<path opacity="0.1" fill-rule="evenodd" clip-rule="evenodd" d="M18.9922 36C28.6572 36 36.4922 28.165 36.4922 18.5C36.4922 8.83502 28.6572 1 18.9922 1C9.3272 1 1.49219 8.83502 1.49219 18.5C1.49219 28.165 9.3272 36 18.9922 36Z" stroke="#0C111A" stroke-width="1.5"/>
<path d="M20.5854 14.0208H22.1938C22.3417 14.0208 22.4618 13.9076 22.4618 13.7682V12.2526C22.4618 12.1132 22.3417 12 22.1938 12H20.5854C18.9599 12 17.6367 13.2463 17.6367 14.7786V16.5468H15.7603C15.6123 16.5468 15.4922 16.6599 15.4922 16.7994V18.3149C15.4922 18.4544 15.6123 18.5675 15.7603 18.5675H17.6367V23.8721C17.6367 24.0115 17.7568 24.1247 17.9048 24.1247H19.5131C19.6611 24.1247 19.7812 24.0115 19.7812 23.8721V18.5675H21.6576C21.7729 18.5675 21.8753 18.4978 21.9123 18.3948L22.4484 16.8792C22.4758 16.8024 22.4618 16.7175 22.4114 16.6513C22.3605 16.5857 22.2801 16.5468 22.1938 16.5468H19.7812V14.7786C19.7812 14.3608 20.142 14.0208 20.5854 14.0208Z" fill="#0C111A"/>
</svg>
