<svg width="32" height="32" viewBox="0 0 32 32" fill="none" xmlns="http://www.w3.org/2000/svg">
<g clip-path="url(#clip0_77_296)">
<path d="M31.2 13.9184C31.199 13.9178 31.1983 13.9167 31.1975 13.916L18.1441 0.863125C17.5876 0.306375 16.8479 0 16.0611 0C15.2742 0 14.5345 0.306375 13.9778 0.863063L0.931143 13.9094C0.926768 13.9138 0.922143 13.9184 0.918018 13.9228C-0.224607 15.0719 -0.222607 16.9364 0.923643 18.0827C1.44727 18.6066 2.13864 18.9099 2.87821 18.9418C2.90846 18.9447 2.93877 18.9462 2.96927 18.9462H3.48927V28.5522C3.48927 30.4533 5.03614 31.9999 6.93727 31.9999H12.0442C12.562 31.9999 12.9817 31.58 12.9817 31.0624V23.5312C12.9817 22.6638 13.6875 21.9583 14.555 21.9583H17.5671C18.4346 21.9583 19.1401 22.6639 19.1401 23.5312V31.0625C19.1401 31.5801 19.5598 32 20.0776 32H25.1846C27.086 32 28.6326 30.4534 28.6326 28.5522V18.9463H29.115C29.9016 18.9463 30.6414 18.6398 31.1983 18.0829C32.3458 16.935 32.3462 15.0671 31.2 13.9184L31.2 13.9184ZM29.8723 16.7573C29.7731 16.8571 29.6551 16.9363 29.5251 16.9902C29.3951 17.0441 29.2557 17.0716 29.115 17.0713H27.695C27.1772 17.0713 26.7575 17.4909 26.7575 18.0088V28.5522C26.7575 29.4194 26.052 30.125 25.1845 30.125H21.0151V23.5312C21.0151 21.6301 19.4685 20.0833 17.5671 20.0833H14.555C12.6536 20.0833 11.1068 21.6301 11.1068 23.5312V30.125H6.93739C6.07014 30.125 5.36433 29.4194 5.36433 28.5522V18.0088C5.36433 17.4909 4.94464 17.0713 4.42683 17.0713H3.03127C3.01664 17.0702 3.00199 17.0695 2.98733 17.0693C2.70802 17.0644 2.44608 16.9536 2.24983 16.757C1.83233 16.3395 1.83233 15.6601 2.24983 15.2424C2.25002 15.2424 2.25002 15.2421 2.25027 15.2419L2.25102 15.2411L15.304 2.18875C15.4031 2.08894 15.5211 2.00981 15.6511 1.95595C15.781 1.90209 15.9204 1.87458 16.0611 1.875C16.347 1.875 16.6158 1.98631 16.8181 2.18875L29.8681 15.2385L29.8743 15.2444C30.2896 15.6626 30.2888 16.3406 29.8723 16.7573Z" fill="#F8B32E"/>
</g>
<defs>
<clipPath id="clip0_77_296">
<rect width="32" height="32" fill="white"/>
</clipPath>
</defs>
</svg>
