<svg width="48" height="49" viewBox="0 0 48 49" fill="none" xmlns="http://www.w3.org/2000/svg">
<rect y="0.5" width="48" height="48" rx="24" fill="#EEE7FD"/>
<path d="M9 23C9 18.0503 9 15.5754 10.5377 14.0377C12.0754 12.5 14.5503 12.5 19.5 12.5H21C25.9497 12.5 28.4246 12.5 29.9624 14.0377C31.5 15.5754 31.5 18.0503 31.5 23V26C31.5 30.9497 31.5 33.4245 29.9624 34.9623C28.4246 36.5 25.9497 36.5 21 36.5H19.5C14.5503 36.5 12.0754 36.5 10.5377 34.9623C9 33.4245 9 30.9497 9 26V23Z" stroke="#360B92" stroke-width="2.25"/>
<path d="M31.5 19.8588L31.6889 19.7029C34.8626 17.0843 36.4494 15.775 37.7247 16.4072C39 17.0394 39 19.1353 39 23.3272V25.6729C39 29.8648 39 31.9606 37.7247 32.5928C36.4494 33.2249 34.8626 31.9157 31.6889 29.297L31.5 29.1412" stroke="#360B92" stroke-width="2.25" stroke-linecap="round"/>
<path d="M23.25 23C24.4926 23 25.5 21.9926 25.5 20.75C25.5 19.5074 24.4926 18.5 23.25 18.5C22.0074 18.5 21 19.5074 21 20.75C21 21.9926 22.0074 23 23.25 23Z" stroke="#360B92" stroke-width="2.25"/>
</svg>
