<svg width="48" height="48" viewBox="0 0 48 48" fill="none" xmlns="http://www.w3.org/2000/svg">
<rect width="48" height="48" rx="24" fill="#AB88F6"/>
<path d="M9 22.5C9 17.5503 9 15.0754 10.5377 13.5377C12.0754 12 14.5503 12 19.5 12H21C25.9497 12 28.4246 12 29.9624 13.5377C31.5 15.0754 31.5 17.5503 31.5 22.5V25.5C31.5 30.4497 31.5 32.9245 29.9624 34.4623C28.4246 36 25.9497 36 21 36H19.5C14.5503 36 12.0754 36 10.5377 34.4623C9 32.9245 9 30.4497 9 25.5V22.5Z" stroke="#EEE7FD" stroke-width="2.25"/>
<path d="M31.5 19.3588L31.6889 19.2029C34.8626 16.5843 36.4494 15.275 37.7247 15.9072C39 16.5394 39 18.6353 39 22.8272V25.1729C39 29.3648 39 31.4606 37.7247 32.0928C36.4494 32.7249 34.8626 31.4157 31.6889 28.797L31.5 28.6412" stroke="#EEE7FD" stroke-width="2.25" stroke-linecap="round"/>
<path d="M23.25 22.5C24.4926 22.5 25.5 21.4926 25.5 20.25C25.5 19.0074 24.4926 18 23.25 18C22.0074 18 21 19.0074 21 20.25C21 21.4926 22.0074 22.5 23.25 22.5Z" stroke="#EEE7FD" stroke-width="2.25"/>
</svg>
