<svg width="32" height="32" viewBox="0 0 32 32" fill="none" xmlns="http://www.w3.org/2000/svg">
<g clip-path="url(#clip0_77_283)">
<path d="M0.101333 2.93543L2.23551 6.66998C2.27115 6.73242 2.31906 6.78701 2.37635 6.83046C2.43363 6.87391 2.49912 6.90533 2.56886 6.92281L4.55994 7.42061L11.3888 14.2494L12.1434 13.4951L5.20758 6.55958C5.13935 6.49114 5.05377 6.44259 4.96003 6.41911L3.04693 5.93913L1.22992 2.75766L2.7877 1.19983L5.97045 3.01864L6.45067 4.93173C6.474 5.02561 6.52248 5.11135 6.5909 5.17973L13.5267 12.1155L14.281 11.361L7.45216 4.53209L6.95436 2.54214C6.93689 2.4723 6.90549 2.40672 6.86204 2.34932C6.8186 2.29192 6.764 2.24389 6.70153 2.20812L2.96676 0.0741643C2.86535 0.016514 2.74784 -0.00631102 2.63222 0.00918402C2.5166 0.0246791 2.40924 0.0776401 2.32659 0.159959L0.19269 2.29414C0.109213 2.3762 0.0550451 2.48344 0.038536 2.59933C0.0220269 2.71522 0.0440932 2.83332 0.101333 2.93543ZM22.2823 10.5147L10.5451 22.252L9.79057 21.4974L21.528 9.76042L22.2823 10.5147ZM8.4909 22.6673C8.44349 22.5883 8.37644 22.523 8.29628 22.4776C8.21612 22.4323 8.1256 22.4085 8.0335 22.4085H4.83249C4.74044 22.4085 4.64995 22.4323 4.56984 22.4777C4.48973 22.523 4.42273 22.5883 4.37537 22.6673L2.77472 25.3347C2.72486 25.4177 2.69851 25.5127 2.69851 25.6095C2.69851 25.7063 2.72486 25.8013 2.77472 25.8843L4.37537 28.5518C4.42277 28.6307 4.48978 28.696 4.56988 28.7413C4.64998 28.7866 4.74045 28.8105 4.83249 28.8105H8.0335C8.12558 28.8105 8.21608 28.7866 8.29622 28.7413C8.37635 28.696 8.4434 28.6307 8.49085 28.5518L10.0913 25.8843C10.1411 25.8013 10.1675 25.7063 10.1675 25.6095C10.1675 25.5127 10.1411 25.4177 10.0913 25.3347L8.4909 22.6673ZM7.73174 27.7434H5.13448L3.85408 25.6096L5.13454 23.4754H7.73174L9.01213 25.6096L7.73174 27.7434Z" fill="#F8B32E"/>
<path d="M25.6392 12.8053C29.1628 12.8171 32.0291 9.97019 32.0409 6.44651C32.0427 5.91022 31.9769 5.37585 31.845 4.85603C31.7739 4.57005 31.4844 4.39599 31.1984 4.46712C31.1046 4.49059 31.0189 4.53905 30.9504 4.60736L27.6294 7.92619L24.9944 7.04808L24.1157 4.4138L27.4367 1.0921C27.5036 1.02519 27.5515 0.941714 27.5754 0.850211C27.5994 0.758708 27.5986 0.662474 27.5732 0.571371C27.5477 0.480268 27.4985 0.397573 27.4305 0.331761C27.3626 0.265949 27.2784 0.219388 27.1865 0.196848C23.7693 -0.66851 20.2979 1.39999 19.4326 4.81692C19.3011 5.33532 19.2354 5.86822 19.2372 6.40302C19.2385 6.82312 19.2818 7.24186 19.3669 7.65313L7.68291 19.337C7.27165 19.2522 6.85293 19.2088 6.43302 19.2073C2.89709 19.2073 0.0307617 22.0736 0.0307617 25.6096C0.0307617 29.1453 2.89709 32.0116 6.43302 32.0116C9.96873 32.0116 12.835 29.1452 12.835 25.6096C12.8337 25.1896 12.7902 24.7708 12.7053 24.3595L15.5025 21.5622L16.7258 22.7856C16.8259 22.8856 16.9616 22.9418 17.1031 22.9418C17.2446 22.9418 17.3803 22.8856 17.4804 22.7856L17.747 22.5187C17.981 22.2863 18.3591 22.2863 18.593 22.5187C18.8268 22.7518 18.8272 23.1302 18.5942 23.3639L18.593 23.365L18.3264 23.6316C18.1181 23.8399 18.1181 24.1778 18.3264 24.386L24.6907 30.7502C26.3646 32.4395 29.0908 32.4518 30.7801 30.7778C32.4692 29.1039 32.4815 26.3775 30.8076 24.6884C30.7986 24.6792 30.7894 24.6699 30.7801 24.6607L24.4159 18.2967C24.2076 18.0884 23.8699 18.0884 23.6616 18.2967L23.3949 18.5633C23.1608 18.796 22.7829 18.796 22.5487 18.5633C22.3151 18.3303 22.3145 17.9519 22.5476 17.7184C22.548 17.718 22.5485 17.7177 22.5487 17.7172L22.8156 17.4504C23.0238 17.2421 23.0238 16.9044 22.8156 16.6961L21.5922 15.4728L24.3893 12.6755C24.8006 12.7605 25.2193 12.804 25.6393 12.8053L25.6392 12.8053ZM27.7354 30.9447C27.3478 30.944 26.9635 30.8739 26.6007 30.7377L30.7674 26.5708C31.3962 28.2434 30.5501 30.1089 28.8775 30.7377C28.5124 30.8749 28.1254 30.9451 27.7354 30.9447ZM21.6914 17.0786C21.1005 17.7834 21.1932 18.8337 21.8979 19.4244C22.5172 19.9434 23.4199 19.9429 24.0386 19.4228L30.0258 25.4153C30.0908 25.4805 30.1515 25.5491 30.2104 25.619L25.6488 30.1804C25.5782 30.122 25.5102 30.0604 25.4449 29.9959L19.4532 24.0036C20.044 23.2989 19.9514 22.2485 19.2466 21.6579C18.6273 21.1386 17.7244 21.1393 17.1057 21.6592L16.2522 20.8057L20.8376 16.227L21.6914 17.0786ZM23.8457 11.7128L11.7429 23.8131C11.6776 23.8783 11.6304 23.9592 11.6057 24.048C11.581 24.1369 11.5797 24.2306 11.602 24.3201C12.3339 27.1945 10.597 30.1181 7.72235 30.8499C4.84794 31.5817 1.92436 29.8448 1.19238 26.9702C0.460688 24.0958 2.19753 21.1722 5.07222 20.4403C5.94175 20.2191 6.85283 20.2191 7.72235 20.4403C7.81183 20.4622 7.90543 20.4607 7.99419 20.4361C8.08295 20.4115 8.1639 20.3645 8.22931 20.2996L20.3293 8.19902C20.3944 8.13387 20.4416 8.05294 20.4662 7.96412C20.4908 7.8753 20.4919 7.78163 20.4695 7.69224C19.7426 4.85142 21.4562 1.9592 24.2971 1.23211C24.834 1.09481 25.3891 1.04237 25.9422 1.0767L23.1279 3.89212C23.0579 3.9621 23.0087 4.0502 22.9859 4.14656C22.9631 4.24292 22.9676 4.34373 22.9989 4.43768L24.0658 7.63892C24.0921 7.71745 24.1363 7.78879 24.1949 7.8473C24.2535 7.9058 24.3249 7.94987 24.4035 7.97603L27.6047 9.04309C27.6987 9.07437 27.7994 9.07891 27.8958 9.0562C27.9921 9.03349 28.0802 8.98442 28.1503 8.91448L30.9646 6.10019C30.971 6.201 30.9742 6.302 30.9743 6.40302C30.9892 9.33458 28.6251 11.723 25.6936 11.7382C25.2404 11.7404 24.7888 11.6847 24.3497 11.5723C24.2603 11.5499 24.1666 11.5511 24.0778 11.5757C23.989 11.6002 23.908 11.6474 23.8428 11.7125H23.8456L23.8457 11.7128Z" fill="#F8B32E"/>
<path d="M27.6177 26.8326L26.8632 27.5872L21.5283 22.2522L22.2826 21.4977L27.6177 26.8326Z" fill="#F8B32E"/>
</g>
<defs>
<clipPath id="clip0_77_283">
<rect width="32" height="32" fill="white"/>
</clipPath>
</defs>
</svg>
