<svg width="20" height="20" viewBox="0 0 20 20" fill="none" xmlns="http://www.w3.org/2000/svg">
<g clip-path="url(#clip0_231_71)">
<path d="M10.8848 7.24609C10.6261 7.24609 10.4164 7.45579 10.4164 7.71448V16.5669C10.4164 16.8255 10.6261 17.0353 10.8848 17.0353C11.1436 17.0353 11.3532 16.8255 11.3532 16.5669V7.71448C11.3532 7.45579 11.1436 7.24609 10.8848 7.24609ZM5.35791 7.24609C5.09922 7.24609 4.88953 7.45579 4.88953 7.71448V16.5669C4.88953 16.8255 5.09922 17.0353 5.35791 17.0353C5.61664 17.0353 5.82629 16.8255 5.82629 16.5669V7.71448C5.82629 7.45579 5.61664 7.24609 5.35791 7.24609Z" fill="#E16262"/>
<path d="M1.33015 5.95419V17.4942C1.33015 18.1763 1.58027 18.8168 2.01718 19.2764C2.23231 19.5044 2.49167 19.6861 2.7794 19.8106C3.06714 19.935 3.37722 19.9994 3.69071 20H12.5527C12.8662 19.9995 13.1763 19.935 13.464 19.8106C13.7518 19.6862 14.0111 19.5044 14.2262 19.2764C14.6632 18.8168 14.9133 18.1763 14.9133 17.4942V5.95419C15.7818 5.72365 16.3446 4.88459 16.2284 3.9934C16.112 3.10235 15.3529 2.43584 14.4542 2.43565H12.0561V1.85017C12.0575 1.60644 12.0104 1.36487 11.9176 1.13949C11.8248 0.914104 11.6882 0.709396 11.5157 0.537249C11.3431 0.365119 11.138 0.228993 10.9124 0.136776C10.6867 0.0445581 10.445 -0.0019131 10.2013 6.07144e-05H6.04218C5.79843 -0.00191931 5.55671 0.0445489 5.33107 0.136767C5.10542 0.228984 4.90035 0.365114 4.72775 0.537249C4.55521 0.709396 4.41858 0.914104 4.3258 1.13949C4.23302 1.36487 4.18594 1.60644 4.18729 1.85017V2.43565H1.78926C0.890527 2.43584 0.131419 3.10235 0.0150257 3.9934C-0.101133 4.88459 0.461629 5.72365 1.33015 5.95419ZM12.5527 19.0632H3.69075C2.88991 19.0632 2.26692 18.3753 2.26692 17.4942V5.99536H13.9765V17.4942C13.9765 18.3753 13.3535 19.0632 12.5527 19.0632ZM5.12405 1.85017C5.12252 1.72942 5.14527 1.60958 5.19094 1.49779C5.2366 1.38599 5.30427 1.2845 5.38991 1.19936C5.47552 1.11416 5.57737 1.04702 5.68941 1.00193C5.80146 0.95683 5.92142 0.934693 6.04218 0.936827H10.2013C10.322 0.934693 10.442 0.95683 10.554 1.00193C10.6661 1.04702 10.7679 1.11416 10.8535 1.19936C10.9392 1.2845 11.0069 1.38598 11.0525 1.49778C11.0982 1.60958 11.1209 1.72942 11.1194 1.85017V2.43565H5.12405V1.85017ZM1.78926 3.37242H14.4543C14.9199 3.37242 15.2974 3.74989 15.2974 4.21551C15.2974 4.68113 14.9199 5.0586 14.4543 5.0586H1.78921C1.32359 5.0586 0.946124 4.68113 0.946124 4.21551C0.946124 3.74989 1.32364 3.37242 1.78926 3.37242Z" fill="#E16262"/>
<path d="M8.1217 7.24609C7.86302 7.24609 7.65332 7.45579 7.65332 7.71448V16.5669C7.65332 16.8255 7.86302 17.0353 8.1217 17.0353C8.38044 17.0353 8.59009 16.8255 8.59009 16.5669V7.71448C8.59009 7.45579 8.38044 7.24609 8.1217 7.24609Z" fill="#E16262"/>
</g>
<defs>
<clipPath id="clip0_231_71">
<rect width="20" height="20" fill="white"/>
</clipPath>
</defs>
</svg>
