<svg width="20" height="20" viewBox="0 0 20 20" fill="none" xmlns="http://www.w3.org/2000/svg">
<g clip-path="url(#clip0_231_67)">
<path d="M18.4592 12.5138C18.1841 12.5138 17.9611 12.7367 17.9611 13.0119V17.4345C17.9601 18.2594 17.2918 18.928 16.4668 18.9288H2.49052C1.66551 18.928 0.997203 18.2594 0.996207 17.4345V4.45438C0.997203 3.62957 1.66556 2.96107 2.49052 2.96007H6.91318C7.18828 2.96007 7.41128 2.73707 7.41128 2.46197C7.41128 2.18702 7.18828 1.96387 6.91318 1.96387H2.49052C1.11565 1.96541 0.00154412 3.07952 0 4.45438V17.4347C0.00154412 18.8095 1.11565 19.9236 2.49052 19.9252H16.4668C17.8416 19.9236 18.9558 18.8095 18.9573 17.4347V13.0119C18.9573 12.7367 18.7343 12.5138 18.4592 12.5138Z" fill="#45A9EA"/>
<path d="M18.7597 0.682404C17.8844 -0.192963 16.4651 -0.192963 15.5898 0.682404L6.70324 9.56892C6.64241 9.62974 6.59837 9.70528 6.57542 9.78818L5.40682 14.0071C5.38324 14.0921 5.38263 14.1817 5.40505 14.267C5.42748 14.3523 5.47213 14.43 5.53446 14.4924C5.59679 14.5547 5.67455 14.5994 5.7598 14.6219C5.84505 14.6443 5.93474 14.6437 6.01969 14.6202L10.2386 13.4514C10.3215 13.4284 10.3971 13.3844 10.4579 13.3236L19.3442 4.43691C20.2182 3.56089 20.2182 2.14289 19.3442 1.26693L18.7597 0.682404ZM7.78855 9.89269L15.0615 2.61958L17.4071 4.96515L10.134 12.2383L7.78855 9.89269ZM7.32004 10.8329L9.1939 12.707L6.60187 13.4251L7.32004 10.8329ZM18.6399 3.73254L18.1116 4.26073L15.7658 1.91496L16.2943 1.38672C16.7806 0.900474 17.569 0.900474 18.0552 1.38672L18.6399 1.9712C19.1253 2.45804 19.1253 3.24589 18.6399 3.73254Z" fill="#45A9EA"/>
</g>
<defs>
<clipPath id="clip0_231_67">
<rect width="20" height="20" fill="white"/>
</clipPath>
</defs>
</svg>
