<svg width="24" height="14" viewBox="0 0 24 14" fill="none" xmlns="http://www.w3.org/2000/svg">
<path d="M21.88 0.0383148H1.29534C0.60824 0.0383148 0.0512695 0.595285 0.0512695 1.28239C0.0512695 1.96949 0.60824 2.52646 1.29534 2.52646H21.88C22.5671 2.52646 23.124 1.96949 23.124 1.28239C23.124 0.595285 22.5671 0.0383148 21.88 0.0383148Z" fill="#CAE6FE"/>
<path d="M21.88 5.4287H1.29534C0.60824 5.4287 0.0512695 5.98567 0.0512695 6.67277C0.0512695 7.35987 0.60824 7.91684 1.29534 7.91684H21.88C22.5671 7.91684 23.124 7.35987 23.124 6.67277C23.124 5.98567 22.5671 5.4287 21.88 5.4287Z" fill="#CAE6FE"/>
<path d="M21.88 10.8187H1.29534C0.60824 10.8187 0.0512695 11.3757 0.0512695 12.0628C0.0512695 12.7499 0.60824 13.3069 1.29534 13.3069H21.88C22.5671 13.3069 23.124 12.7499 23.124 12.0628C23.124 11.3757 22.5671 10.8187 21.88 10.8187Z" fill="#CAE6FE"/>
</svg>
