<svg width="49" height="10" viewBox="0 0 49 10" fill="none" xmlns="http://www.w3.org/2000/svg">
<path d="M0.710938 1.86912L4.10871 7.0387C5.0565 8.48072 6.66637 9.34924 8.39239 9.34924H41.2278C42.9534 9.34924 44.5637 8.48072 45.5111 7.0387L48.9089 1.86912C48.9089 1.33335 48.4706 0.894211 47.934 0.894211H1.68585C1.1505 0.894211 0.710938 1.33377 0.710938 1.86912Z" fill="#2A365C"/>
<path d="M35.9659 5.60685H7.83084C7.25904 5.60685 6.7915 5.13889 6.7915 4.56751C6.7915 3.9957 7.25946 3.52817 7.83084 3.52817H35.9659C36.5377 3.52817 37.0053 3.99613 37.0053 4.56751C37.0053 5.13889 36.5373 5.60685 35.9659 5.60685Z" fill="#445279"/>
<path d="M42.5208 4.49801C42.5208 5.18681 41.9621 5.74548 41.2733 5.74548C40.5845 5.74548 40.0259 5.18723 40.0259 4.49801C40.0259 3.80922 40.5841 3.25055 41.2733 3.25055C41.9626 3.25055 42.5208 3.80922 42.5208 4.49801Z" fill="#445279"/>
</svg>
