<svg width="140" height="153" viewBox="0 0 140 153" fill="none" xmlns="http://www.w3.org/2000/svg">
<path d="M97.605 43.5828L98.6795 43.9376L99.2496 44.1254L100.865 44.6577C100.865 44.6577 124.92 25.1985 118.756 13.6068C116.858 10.0382 111.121 10.2599 107.904 22.1903C104.921 33.2492 97.605 43.5828 97.605 43.5828Z" fill="#ABD3F2"/>
<path d="M98.6797 43.9376L99.2498 44.1254C104.082 39.0376 107.812 33.0245 110.163 28.7044C112.955 23.5747 114.464 19.6551 114.478 19.6161C114.532 19.4762 114.462 19.319 114.322 19.2664C114.182 19.2126 114.024 19.2825 113.971 19.422C113.957 19.4614 112.459 23.3534 109.682 28.4526C107.319 32.7939 103.556 38.8549 98.6797 43.9376Z" fill="#90C3EF"/>
<path d="M34.8841 146.183L33.8248 146.252L33.2628 146.288L31.6711 146.391C31.6711 146.391 14.4139 123.057 22.7414 113.985C25.305 111.192 30.461 112.744 30.5725 124.334C30.6759 135.078 34.8841 146.183 34.8841 146.183Z" fill="#ABD3F2"/>
<path d="M33.8245 146.252L33.2625 146.288C30.0732 140.531 28.1035 134.193 26.9862 129.716C25.6594 124.401 25.2135 120.487 25.2097 120.449C25.1936 120.309 25.2945 120.183 25.4339 120.168C25.5738 120.152 25.6997 120.252 25.7154 120.391C25.7196 120.431 26.1626 124.317 27.4825 129.601C28.6062 134.1 30.595 140.489 33.8245 146.252Z" fill="#90C3EF"/>
<path d="M40.2135 149.7L38.9758 150.611L38.3192 151.094L36.4592 152.462C36.4592 152.462 -2.80088 137.494 0.265425 119.931C1.20939 114.524 8.70731 112.39 17.8939 126.431C26.41 139.448 40.2135 149.7 40.2135 149.7Z" fill="#CAE6FE"/>
<path d="M38.9759 150.611L38.3193 151.094C29.9351 146.565 22.5842 140.377 17.7266 135.793C11.9585 130.35 8.35814 125.927 8.32339 125.882C8.19453 125.725 8.21911 125.492 8.37764 125.365C8.53532 125.236 8.76761 125.261 8.89562 125.418C8.93165 125.462 12.5062 129.854 18.2416 135.265C23.1238 139.872 30.5382 146.108 38.9759 150.611Z" fill="#ABD3F2"/>
<path d="M92.0249 47.3256L93.2088 48.4586L93.837 49.0593L95.6164 50.7607C95.6164 50.7607 139.175 40.3092 138.337 21.3205C138.079 15.4748 130.444 12.1915 118.808 25.7801C108.022 38.3764 92.0249 47.3256 92.0249 47.3256Z" fill="#CAE6FE"/>
<path d="M93.208 48.4586L93.8362 49.0593C103.321 45.4195 111.94 39.8832 117.703 35.7013C124.547 30.7356 128.959 26.5524 129.002 26.5104C129.16 26.3612 129.166 26.1124 129.016 25.9556C128.866 25.7979 128.618 25.7919 128.461 25.9411C128.417 25.9835 124.036 30.1375 117.231 35.0731C111.438 39.2745 102.746 44.8523 93.208 48.4586Z" fill="#ABD3F2"/>
<path d="M14.0754 34.6191C15.6921 39.339 20.4582 38.9952 20.5154 42.8787C20.5722 46.761 23.1298 49.6065 26.4509 48.7587C29.7728 47.9101 32.1698 47.1005 33.8564 50.8963C35.5422 54.6921 40.4947 56.422 42.2987 53.2967C42.7484 52.5189 43.2338 51.6763 43.7085 50.8493C43.8382 50.6234 43.9675 50.3983 44.0947 50.177C44.1243 50.1257 44.1544 50.0744 44.1833 50.0236C46.0932 46.6974 45.243 42.4278 42.1347 40.1808C40.8762 39.2716 39.396 38.7918 37.7624 39.3462C32.6462 41.0807 34.2994 35.7962 31.1245 33.7188C27.4678 31.3252 24.5371 34.3233 22.0138 32.2603C18.5037 29.3911 12.4588 29.8993 14.0754 34.6191Z" fill="#ABD3F2"/>
<path d="M20.3378 36.4325L43.7085 50.8497C43.8382 50.6238 43.9675 50.3987 44.0947 50.1775L20.7451 35.7729C20.5629 35.6606 20.3242 35.717 20.2119 35.8988C20.0991 36.0811 20.1555 36.3202 20.3378 36.4325Z" fill="#90C3EF"/>
<path d="M17.666 8.25242C16.9543 14.3867 22.4613 16.5443 20.4538 20.9123C18.4472 25.279 19.7862 29.8213 23.9478 30.6457C28.1107 31.4697 31.2198 31.8436 31.0791 36.9826C30.9375 42.1217 35.5467 46.6945 39.2285 44.166C40.1458 43.5374 41.1372 42.8546 42.1083 42.1844C42.3736 42.0013 42.6381 41.819 42.898 41.6393C42.9586 41.5982 43.0192 41.5567 43.0785 41.5151C46.9854 38.8184 48.313 33.5963 46.0397 29.4288C45.1195 27.7422 43.722 26.4167 41.6013 26.1649C34.9622 25.374 39.6269 20.3528 37.188 16.3395C34.3798 11.7159 29.5078 13.5017 27.7898 9.85128C25.4009 4.77411 18.3777 2.11811 17.666 8.25242Z" fill="#CAE6FE"/>
<path d="M23.6935 13.6169L42.1083 42.184C42.3736 42.0009 42.6382 41.8186 42.898 41.6389L24.4997 13.0973C24.356 12.8747 24.0593 12.8103 23.8368 12.9536C23.6147 13.0977 23.5502 13.3944 23.6935 13.6169Z" fill="#ABD3F2"/>
<path d="M117.98 112.463C113.239 114.016 113.518 118.786 109.634 118.791C105.752 118.796 102.872 121.315 103.675 124.647C104.478 127.98 105.256 130.387 101.437 132.023C97.6189 133.657 95.8225 138.585 98.9232 140.432C99.6946 140.892 100.531 141.388 101.351 141.874C101.575 142.007 101.798 142.139 102.018 142.269C102.069 142.3 102.12 142.33 102.17 142.36C105.47 144.314 109.751 143.522 112.04 140.444C112.966 139.199 113.466 137.725 112.933 136.084C111.268 130.945 116.53 132.669 118.65 129.523C121.093 125.898 118.134 122.927 120.231 120.433C123.148 116.962 122.722 110.91 117.98 112.463Z" fill="#ABD3F2"/>
<path d="M116.083 118.701L101.352 141.875C101.576 142.007 101.799 142.14 102.019 142.27L116.737 119.116C116.852 118.936 116.799 118.696 116.618 118.581C116.438 118.467 116.198 118.52 116.083 118.701Z" fill="#90C3EF"/>
<path d="M136.009 122.353C129.885 121.559 127.653 127.036 123.313 124.97C118.973 122.905 114.414 124.183 113.533 128.333C112.653 132.484 112.238 135.588 107.101 135.378C101.964 135.167 97.3294 139.714 99.8078 143.43C100.424 144.356 101.093 145.356 101.75 146.336C101.93 146.603 102.109 146.871 102.285 147.133C102.325 147.194 102.366 147.255 102.407 147.315C105.051 151.258 110.255 152.656 114.452 150.439C116.151 149.542 117.495 148.162 117.776 146.046C118.656 139.417 123.614 144.15 127.66 141.765C132.321 139.02 130.601 134.124 134.274 132.455C139.382 130.134 142.133 123.147 136.009 122.353Z" fill="#CAE6FE"/>
<path d="M130.564 128.308L101.751 146.336C101.931 146.604 102.109 146.871 102.285 147.134L131.072 129.122C131.297 128.981 131.365 128.685 131.225 128.461C131.084 128.236 130.788 128.167 130.564 128.308Z" fill="#ABD3F2"/>
<path d="M38.9101 98.7293C32.9191 91.8261 22.2561 78.2172 18.971 72.7513C14.6793 65.6103 12.7994 59.8015 13.3831 55.4856C13.4221 55.1999 13.6849 54.999 13.9714 55.0376C14.2576 55.0762 14.458 55.3398 14.4195 55.6259C13.3988 63.1696 19.5361 74.1942 39.4327 97.7853L38.9101 98.7293Z" fill="#ABD3F2"/>
<path d="M15.6761 66.0664C15.6761 66.0664 12.1876 68.6974 7.80176 62.3834C7.80176 62.3834 14.2836 59.8702 15.6761 66.0664Z" fill="#CAE6FE"/>
<path d="M17.7695 69.4383C17.7695 69.4383 14.9486 66.1015 21.0087 61.3711C21.0087 61.3711 23.8783 67.7034 17.7695 69.4383Z" fill="#CAE6FE"/>
<path d="M13.9315 58.83C13.9315 58.83 10.1594 56.625 14.2956 50.1444C14.2956 50.1444 19.1125 55.1575 13.9315 58.83Z" fill="#CAE6FE"/>
<path d="M21.7706 76.3525C21.7706 76.3525 19.3779 80.0085 13.1143 75.5501C13.1143 75.5501 18.3644 70.9931 21.7706 76.3525Z" fill="#CAE6FE"/>
<path d="M24.4222 79.4651C24.4222 79.4651 21.0668 76.6666 26.2173 70.9592C26.2173 70.9592 30.139 76.6997 24.4222 79.4651Z" fill="#CAE6FE"/>
<path d="M27.6304 84.0874C27.6304 84.0874 25.3071 87.7878 18.9604 83.4495C18.9604 83.4495 24.1228 78.7936 27.6304 84.0874Z" fill="#CAE6FE"/>
<path d="M79.7476 36.4062C82.8567 27.8104 86.0324 20.6639 89.2051 15.1319C93.3497 7.90442 97.5062 3.43212 101.559 1.8392C101.828 1.73366 102.131 1.8659 102.237 2.13464C102.343 2.40338 102.21 2.70687 101.942 2.81242C94.8566 5.59685 87.2569 18.0948 79.9421 38.9765L79.7476 36.4062Z" fill="#ABD3F2"/>
<path d="M93.4375 8.99716C93.4375 8.99716 89.4399 7.23299 92.8165 0.325958C92.8165 0.325958 98.1692 4.7618 93.4375 8.99716Z" fill="#CAE6FE"/>
<path d="M91.5117 12.4679C91.5117 12.4679 93.0508 8.37832 100.135 11.3654C100.135 11.3654 96.0039 16.9567 91.5117 12.4679Z" fill="#CAE6FE"/>
<path d="M98.9058 3.94756C98.9058 3.94756 98.9935 -0.420889 106.668 0.033081C106.668 0.033081 104.637 6.68198 98.9058 3.94756Z" fill="#CAE6FE"/>
<path d="M87.424 19.3308C87.424 19.3308 83.0653 19.0227 83.9067 11.381C83.9067 11.381 90.4445 13.7446 87.424 19.3308Z" fill="#CAE6FE"/>
<path d="M85.999 23.1635C85.999 23.1635 86.8078 18.8696 94.3015 20.5863C94.3015 20.5863 91.1995 26.808 85.999 23.1635Z" fill="#CAE6FE"/>
<path d="M83.5254 28.2174C83.5254 28.2174 79.1616 27.9918 79.858 20.3354C79.858 20.3354 86.4391 22.5752 83.5254 28.2174Z" fill="#CAE6FE"/>
</svg>
