<svg width="46" height="85" viewBox="0 0 46 85" fill="none" xmlns="http://www.w3.org/2000/svg">
<path d="M7.29419 60.2579L12.4451 61.9818C13.0966 62.1993 13.8011 61.8479 14.0181 61.1968L18.3844 48.1487L20.1906 42.7527L12.6821 40.2392L11.6122 43.436L6.5096 58.6845C6.2913 59.3347 6.64269 60.0392 7.29419 60.2579Z" fill="#F8B32E"/>
<path d="M11.6128 43.436C13.107 45.0963 15.367 47.0525 18.385 48.1487L20.1912 42.7527L12.6827 40.2392L11.6128 43.436Z" fill="#AB8336"/>
<path d="M12.2004 61.8996L11.6981 63.4014L5.22977 82.7313C4.79869 84.019 3.40626 84.7129 2.11853 84.2827C0.83207 83.8512 0.136915 82.4588 0.56842 81.1715L6.42637 63.6663L7.53904 60.3397L12.2004 61.8996Z" fill="#2A365C"/>
<path d="M12.2003 61.8996L11.698 63.4014L6.42627 63.6663L7.53894 60.3397L12.2003 61.8996Z" fill="#0F0428"/>
<path d="M1.72165 15.2963C-2.24031 26.9388 3.98514 39.5898 15.629 43.5526C27.2724 47.515 39.9229 41.2878 43.8853 29.6453C47.8477 18.0019 41.6218 5.35049 29.9784 1.38768C18.3346 -2.57427 5.68403 3.65288 1.72165 15.2963ZM4.95454 16.3967C8.304 6.55429 19.0357 1.27154 28.878 4.621C38.7204 7.97046 44.0014 18.703 40.652 28.5449C37.303 38.386 26.5713 43.6688 16.7289 40.3193C6.88698 36.9703 1.60551 26.2378 4.95454 16.3967Z" fill="#445279"/>
<path opacity="0.5" d="M3.99627 23.7941C4.72576 34.1638 13.756 42.008 24.1269 41.2785C25.0162 41.2162 25.8881 41.0925 26.7371 40.9115C28.937 40.4435 30.9865 39.5953 32.8189 38.4415C34.7297 37.2386 36.4044 35.7046 37.7664 33.9264C39.909 31.1335 41.2803 27.7379 41.5914 24.0764C41.6732 23.1168 41.6813 22.1381 41.6117 21.1479C40.8823 10.777 31.852 2.93273 21.4811 3.66222C20.4905 3.73173 19.5228 3.87713 18.5831 4.09245C15.0009 4.91308 11.8299 6.7476 9.36549 9.2599C7.79546 10.8571 6.51112 12.7302 5.58877 14.7906C4.70329 16.7663 4.15014 18.9145 3.995 21.1581C3.93396 22.0245 3.93354 22.9048 3.99627 23.7941Z" fill="#FEFDFF"/>
<path opacity="0.5" d="M9.36475 9.25988L37.766 33.9264C39.9087 31.1335 41.28 27.7379 41.5911 24.0764L18.5823 4.09244C15.0002 4.91306 11.8292 6.74758 9.36475 9.25988Z" fill="#FEFDFF"/>
<path opacity="0.5" d="M3.99414 21.158L26.7371 40.9115C28.937 40.4435 30.9865 39.5953 32.8189 38.4415L5.58833 14.7906C4.70244 16.7663 4.14928 18.9145 3.99414 21.158Z" fill="#FEFDFF"/>
</svg>
