<svg width="167" height="105" viewBox="0 0 167 105" fill="none" xmlns="http://www.w3.org/2000/svg">
<path d="M162.177 17.8977C163.462 17.8977 164.507 18.9434 164.507 20.2286C164.507 21.5138 163.462 22.5595 162.177 22.5595C160.891 22.5595 159.846 21.5138 159.846 20.2286C159.846 18.9434 160.891 17.8977 162.177 17.8977ZM162.177 18.6289C161.295 18.6289 160.577 19.3465 160.577 20.2286C160.577 21.1107 161.295 21.8283 162.177 21.8283C163.059 21.8283 163.776 21.1107 163.776 20.2286C163.776 19.3465 163.059 18.6289 162.177 18.6289Z" fill="#2A365C"/>
<path d="M159.805 6.05037C161.09 6.05037 162.136 7.09607 162.136 8.38126C162.136 9.66645 161.09 10.7121 159.805 10.7121C158.52 10.7121 157.474 9.66645 157.474 8.38126C157.474 7.09607 158.52 6.05037 159.805 6.05037ZM159.805 6.78198C158.923 6.78198 158.205 7.4996 158.205 8.38168C158.205 9.26376 158.923 9.98138 159.805 9.98138C160.687 9.98138 161.405 9.26376 161.405 8.38168C161.405 7.4996 160.687 6.78198 159.805 6.78198Z" fill="#F8B32E"/>
<path d="M152.715 2.76789C152.715 2.96966 152.878 3.13369 153.081 3.13369H154.693C154.895 3.13369 155.059 2.97008 155.059 2.76789C155.059 2.56613 154.895 2.40208 154.693 2.40208H153.081C152.879 2.40251 152.715 2.56613 152.715 2.76789Z" fill="#F8B32E"/>
<path d="M149.893 2.76791C149.893 2.96967 150.057 3.13371 150.259 3.13371H151.871C152.073 3.13371 152.237 2.97009 152.237 2.76791C152.237 2.56614 152.073 2.4021 151.871 2.4021H150.259C150.057 2.40252 149.893 2.56614 149.893 2.76791Z" fill="#F8B32E"/>
<path d="M152.11 0.504841V1.95322C152.11 2.15499 152.274 2.31902 152.476 2.31902C152.678 2.31902 152.842 2.15541 152.842 1.95322V0.504841C152.842 0.303077 152.678 0.139038 152.476 0.139038C152.274 0.139038 152.11 0.302653 152.11 0.504841Z" fill="#F8B32E"/>
<path d="M152.11 3.5826V5.03098C152.11 5.23274 152.274 5.39636 152.476 5.39636C152.678 5.39636 152.842 5.23274 152.842 5.03098V3.5826C152.842 3.38084 152.678 3.2168 152.476 3.2168C152.274 3.21722 152.11 3.38084 152.11 3.5826Z" fill="#F8B32E"/>
<path d="M155.344 15.218C155.344 15.4197 155.508 15.5838 155.71 15.5838H157.322C157.524 15.5838 157.688 15.4202 157.688 15.218C157.688 15.0162 157.524 14.8522 157.322 14.8522H155.71C155.508 14.8522 155.344 15.0162 155.344 15.218Z" fill="#F8B32E"/>
<path d="M152.523 15.218C152.523 15.4197 152.687 15.5838 152.889 15.5838H154.501C154.703 15.5838 154.867 15.4202 154.867 15.218C154.867 15.0162 154.703 14.8522 154.501 14.8522H152.889C152.687 14.8522 152.523 15.0162 152.523 15.218Z" fill="#F8B32E"/>
<path d="M154.74 12.9545V14.4029C154.74 14.6046 154.903 14.7687 155.106 14.7687C155.307 14.7687 155.471 14.605 155.471 14.4029V12.9545C155.471 12.7527 155.308 12.5887 155.106 12.5887C154.904 12.5891 154.74 12.7527 154.74 12.9545Z" fill="#F8B32E"/>
<path d="M154.74 16.0326V17.481C154.74 17.6828 154.903 17.8468 155.106 17.8468C155.307 17.8468 155.471 17.6832 155.471 17.481V16.0326C155.471 15.8309 155.308 15.6668 155.106 15.6668C154.904 15.6673 154.74 15.8309 154.74 16.0326Z" fill="#F8B32E"/>
<path d="M5.62662 29.1876C5.62662 30.4728 4.58092 31.5185 3.29573 31.5185C2.01054 31.5185 0.964844 30.4728 0.964844 29.1876C0.964844 27.9024 2.01054 26.8567 3.29573 26.8567C4.58092 26.8567 5.62662 27.9024 5.62662 29.1876ZM4.89543 29.1876C4.89543 28.3055 4.17781 27.5879 3.29573 27.5879C2.41365 27.5879 1.69603 28.3055 1.69603 29.1876C1.69603 30.0697 2.41365 30.7873 3.29573 30.7873C4.17781 30.7873 4.89543 30.0701 4.89543 29.1876Z" fill="#360B92"/>
<path d="M15.1418 26.0433C15.1418 27.3285 14.0961 28.3742 12.8109 28.3742C11.5257 28.3742 10.48 27.3285 10.48 26.0433C10.48 24.7581 11.5257 23.7124 12.8109 23.7124C14.0961 23.712 15.1418 24.7577 15.1418 26.0433ZM14.4106 26.0433C14.4106 25.1612 13.6929 24.4436 12.8109 24.4436C11.9288 24.4436 11.2112 25.1612 11.2112 26.0433C11.2112 26.9254 11.9288 27.643 12.8109 27.643C13.6929 27.643 14.4106 26.9254 14.4106 26.0433Z" fill="#2A365C"/>
<path d="M15.44 16.0361C15.2383 16.0361 15.0742 16.1997 15.0742 16.4019V18.0143C15.0742 18.2165 15.2378 18.3801 15.44 18.3801C15.6422 18.3801 15.8058 18.2165 15.8058 18.0143V16.4019C15.8058 16.1997 15.6418 16.0361 15.44 16.0361Z" fill="#360B92"/>
<path d="M15.44 13.2139C15.2383 13.2139 15.0742 13.3775 15.0742 13.5797V15.1921C15.0742 15.3939 15.2378 15.5579 15.44 15.5579C15.6422 15.5579 15.8058 15.3943 15.8058 15.1921V13.5797C15.8058 13.3779 15.6418 13.2139 15.44 13.2139Z" fill="#360B92"/>
<path d="M17.7033 15.4312H16.255C16.0532 15.4312 15.8892 15.5948 15.8892 15.797C15.8892 15.9987 16.0528 16.1628 16.255 16.1628H17.7033C17.9051 16.1628 18.0691 15.9991 18.0691 15.797C18.0687 15.5948 17.9051 15.4312 17.7033 15.4312Z" fill="#360B92"/>
<path d="M14.6252 15.4312H13.1768C12.9751 15.4312 12.811 15.5948 12.811 15.797C12.811 15.9987 12.9747 16.1628 13.1768 16.1628H14.6252C14.827 16.1628 14.991 15.9992 14.991 15.797C14.9906 15.5948 14.827 15.4312 14.6252 15.4312Z" fill="#360B92"/>
<path d="M5.55916 18.6187C5.3574 18.6187 5.19336 18.7823 5.19336 18.9845V20.5969C5.19336 20.7991 5.35697 20.9627 5.55916 20.9627C5.76093 20.9627 5.92497 20.7991 5.92497 20.5969V18.9845C5.92497 18.7823 5.76135 18.6187 5.55916 18.6187Z" fill="#360B92"/>
<path d="M5.55916 15.797C5.3574 15.797 5.19336 15.9606 5.19336 16.1628V17.7752C5.19336 17.9774 5.35697 18.141 5.55916 18.141C5.76093 18.141 5.92497 17.9774 5.92497 17.7752V16.1628C5.92497 15.9606 5.76135 15.797 5.55916 15.797Z" fill="#360B92"/>
<path d="M7.82297 18.0138H6.37459C6.17283 18.0138 6.00879 18.1774 6.00879 18.3796C6.00879 18.5818 6.1724 18.7454 6.37459 18.7454H7.82297C8.02474 18.7454 8.18835 18.5818 8.18835 18.3796C8.18835 18.1779 8.02474 18.0138 7.82297 18.0138Z" fill="#360B92"/>
<path d="M4.74485 18.0138H3.29647C3.0947 18.0138 2.93066 18.1774 2.93066 18.3796C2.93066 18.5818 3.09428 18.7454 3.29647 18.7454H4.74485C4.94661 18.7454 5.11065 18.5818 5.11065 18.3796C5.11023 18.1779 4.94661 18.0138 4.74485 18.0138Z" fill="#360B92"/>
<path d="M13.0717 41.449V49.233C13.0717 49.7315 12.6686 50.1316 12.1735 50.1316H4.38605C4.04441 50.1316 3.74939 49.9438 3.59552 49.6641C3.58026 49.6331 3.56458 49.6026 3.55568 49.5717C3.54042 49.5255 3.52474 49.4793 3.50948 49.4301C3.50948 49.4242 3.50651 49.4208 3.50651 49.4149C3.50651 49.4089 3.50354 49.3996 3.50354 49.3932C3.49422 49.3411 3.48828 49.2885 3.48828 49.2334V41.4494C3.48828 40.9819 3.84222 40.6033 4.2911 40.5542C4.32204 40.5542 4.35595 40.5512 4.38647 40.5512H12.1739C12.2663 40.5512 12.3553 40.5635 12.4384 40.5911C12.4384 40.5911 12.4384 40.5911 12.4414 40.5911C12.8072 40.7047 13.0717 41.0429 13.0717 41.449Z" fill="#2A365C"/>
<path d="M8.84764 47.9822L8.84128 48.7583L7.85535 48.7502L7.86128 48.0089C7.16231 47.9614 6.48539 47.7669 6.06787 47.5049L6.60916 46.3062C7.06864 46.5826 7.68241 46.7627 8.22115 46.7669C8.68954 46.7708 8.85824 46.6741 8.85993 46.5063C8.86502 45.8908 6.15434 46.3655 6.16918 44.5399C6.17553 43.7498 6.75455 43.0898 7.90282 42.9385L7.90918 42.1764L8.89511 42.1844L8.88918 42.9326C9.40631 42.986 9.9086 43.1229 10.3058 43.3497L9.79966 44.5416C9.31899 44.2928 8.86544 44.1703 8.43903 44.1669C7.95666 44.1631 7.80152 44.3017 7.80025 44.4695C7.79558 45.057 10.5058 44.5895 10.491 46.3939C10.4842 47.1493 9.93318 47.802 8.84764 47.9822Z" fill="#FEFDFF"/>
<path d="M166.978 95.5235V103.317C166.978 103.816 166.575 104.216 166.079 104.216H158.282C157.94 104.216 157.645 104.029 157.49 103.748C157.475 103.717 157.46 103.686 157.45 103.656C157.435 103.609 157.419 103.563 157.404 103.514C157.404 103.508 157.401 103.505 157.401 103.499C157.401 103.492 157.398 103.483 157.398 103.477C157.389 103.425 157.383 103.372 157.383 103.317V95.5235C157.383 95.0551 157.737 94.6762 158.187 94.627C158.218 94.627 158.252 94.6241 158.282 94.6241H166.079C166.171 94.6241 166.261 94.6363 166.344 94.6639C166.344 94.6639 166.344 94.6639 166.347 94.6639C166.714 94.7779 166.978 95.117 166.978 95.5235Z" fill="#360B92"/>
<path d="M162.278 96.5735C160.621 96.5735 159.273 97.9214 159.273 99.5787C159.273 101.236 160.621 102.584 162.278 102.584C163.935 102.584 165.283 101.236 165.283 99.5787C165.283 97.9214 163.935 96.5735 162.278 96.5735ZM162.399 100.688V99.6351H163.758C163.749 100.007 163.695 100.361 163.597 100.688H162.399ZM163.25 101.888C163.471 101.607 163.646 101.285 163.772 100.93H164.688C164.301 101.618 163.652 102.102 162.888 102.274C163.017 102.158 163.139 102.029 163.25 101.888ZM163.515 100.93C163.401 101.225 163.251 101.495 163.066 101.731C162.778 102.099 162.49 102.286 162.399 102.339V100.93H163.515V100.93ZM162.399 98.099V96.818C162.435 96.8197 162.471 96.8218 162.507 96.8248C162.657 96.9524 163.128 97.389 163.449 98.0994H162.399V98.099ZM163.713 98.099C163.605 97.84 163.469 97.592 163.308 97.3606C163.191 97.1932 163.063 97.0359 162.928 96.8922C163.619 97.0596 164.226 97.4941 164.611 98.099H163.713ZM162.399 99.3935V98.3406H163.547C163.672 98.6797 163.742 99.0336 163.756 99.3935H162.399ZM163.998 99.3935C163.985 99.0357 163.919 98.6818 163.804 98.3406H164.749C164.914 98.6704 165.011 99.0243 165.036 99.3935H163.998ZM165.041 99.6351C165.033 100.001 164.955 100.355 164.809 100.688H163.849C163.941 100.359 163.991 100.005 163.999 99.6351H165.041ZM160.736 100.688H159.748C159.601 100.355 159.523 100.001 159.516 99.6351H160.585C160.593 100.005 160.644 100.359 160.736 100.688ZM161.135 98.099C161.228 97.8917 161.341 97.6916 161.471 97.5043C161.724 97.1402 161.977 96.9096 162.081 96.8223C162.106 96.8206 162.132 96.8193 162.157 96.818V98.099H161.135ZM162.157 98.3406V99.3935H160.829C160.843 99.0349 160.913 98.681 161.037 98.3406H162.157ZM159.946 98.099C160.338 97.4827 160.958 97.0448 161.664 96.8837C161.525 97.0295 161.395 97.1898 161.276 97.3606C161.115 97.592 160.979 97.84 160.871 98.099H159.946ZM162.157 99.6351V100.688H160.987C160.889 100.362 160.835 100.009 160.827 99.6351H162.157ZM159.521 99.3935C159.545 99.0247 159.642 98.6708 159.808 98.3406H160.78C160.665 98.6818 160.599 99.0357 160.586 99.3935H159.521ZM160.812 100.93C160.938 101.286 161.114 101.608 161.334 101.888C161.448 102.032 161.572 102.164 161.705 102.282C160.935 102.118 160.258 101.62 159.868 100.93H160.812ZM162.157 100.93V102.322C161.975 102.208 161.404 101.796 161.07 100.93H162.157Z" fill="#FEFDFF"/>
</svg>
