<svg width="174" height="52" viewBox="0 0 174 52" fill="none" xmlns="http://www.w3.org/2000/svg">
<path d="M173.632 50.0816C173.632 50.589 173.425 51.0518 173.088 51.3867C172.755 51.7237 172.293 51.9305 171.785 51.9305H132.261C131.246 51.9305 130.415 51.0989 130.415 50.0816C130.415 49.5742 130.621 49.1113 130.958 48.7765C131.291 48.4395 131.754 48.2326 132.261 48.2326H134.129C134.867 46.5181 136.571 45.3198 138.554 45.3198C139.889 45.3198 141.096 45.8636 141.971 46.7402C143.135 44.7653 145.282 43.439 147.741 43.439C148.417 43.439 149.068 43.5412 149.682 43.7269C150.968 41.3087 153.51 39.6623 156.44 39.6623C159.958 39.6623 162.918 42.0381 163.812 45.271C164.46 44.9468 165.191 44.7615 165.967 44.7615C168.162 44.7615 170.013 46.2264 170.595 48.2331H171.785C172.8 48.2326 173.632 49.0643 173.632 50.0816Z" fill="#CAE6FE"/>
<path d="M37.2535 17.8752C37.2535 18.3126 37.075 18.7115 36.7847 19.0002C36.4977 19.2905 36.0989 19.469 35.6614 19.469H1.59207C0.717197 19.469 0 18.7522 0 17.8752C0 17.4378 0.178452 17.0389 0.468806 16.7502C0.755345 16.4599 1.15464 16.2814 1.59207 16.2814H3.20237C3.83861 14.8034 5.30733 13.7704 7.01682 13.7704C8.16764 13.7704 9.20783 14.2392 9.9619 14.9945C10.9656 13.2923 12.8167 12.1491 14.9361 12.1491C15.5189 12.1491 16.0793 12.2372 16.6087 12.397C17.7171 10.3124 19.9081 8.8933 22.434 8.8933C25.4672 8.8933 28.0185 10.941 28.7887 13.728C29.3474 13.4487 29.9781 13.2889 30.647 13.2889C32.5387 13.2889 34.1342 14.5516 34.6361 16.2814H35.6618C36.5367 16.2814 37.2535 16.9986 37.2535 17.8752Z" fill="#CAE6FE"/>
<path d="M100.648 9.33453C100.648 9.7779 100.467 10.1819 100.173 10.4743C99.8821 10.7685 99.4781 10.9495 99.0347 10.9495H64.5127C63.6259 10.9495 62.8994 10.223 62.8994 9.33453C62.8994 8.89116 63.08 8.4872 63.3746 8.19473C63.6649 7.90056 64.0693 7.71957 64.5127 7.71957H66.1442C66.7885 6.22202 68.2767 5.17505 70.0091 5.17505C71.1751 5.17505 72.2293 5.64979 72.9931 6.41573C74.01 4.69099 75.8857 3.53254 78.0334 3.53254C78.6239 3.53254 79.1919 3.62197 79.7285 3.78389C80.8518 1.67173 83.072 0.233521 85.6314 0.233521C88.7049 0.233521 91.2901 2.30881 92.0705 5.13224C92.6368 4.84909 93.2755 4.68717 93.9537 4.68717C95.8705 4.68717 97.4872 5.96685 97.9958 7.71957H99.0352C99.9211 7.71957 100.648 8.44609 100.648 9.33453Z" fill="#CAE6FE"/>
</svg>
