<svg width="76" height="138" viewBox="0 0 76 138" fill="none" xmlns="http://www.w3.org/2000/svg">
<path d="M75.5759 7.40726V130.93C75.5759 134.802 72.438 137.94 68.5659 137.94H7.05405C5.10846 137.94 3.34981 137.148 2.07946 135.87C0.821824 134.601 0.0444336 132.857 0.0444336 130.93V7.40726C0.0444336 3.53516 3.18238 0.397217 7.05448 0.397217H68.5663C69.7108 0.397217 70.7916 0.671039 71.7462 1.15849C74.0199 2.31694 75.5759 4.67962 75.5759 7.40726Z" fill="#2A365C"/>
<path d="M75.5751 7.40722V130.93C75.5751 134.802 72.4371 137.94 68.565 137.94H7.0532C5.10762 137.94 3.34897 137.148 2.07861 135.87L71.7449 1.15846C74.019 2.31691 75.5751 4.67959 75.5751 7.40722Z" fill="#16162F"/>
</svg>
