<svg width="66" height="49" viewBox="0 0 66 49" fill="none" xmlns="http://www.w3.org/2000/svg">
<path d="M62.5662 18.774H3.38818V45.6608H62.5662V18.774Z" fill="#360B92"/>
<path d="M62.5662 18.774H3.38818V20.9091H62.5662V18.774Z" fill="#45A9EA"/>
<path d="M62.5662 17.1748H3.38818L7.99528 6.26765H57.9586L62.5662 17.1748Z" fill="#445279"/>
<path d="M64.4439 17.101H0.759277V18.7741H64.4439V17.101Z" fill="#2A365C"/>
<path d="M45.4383 45.6608H20.5166V24.8054L33.3121 17.8521L45.4383 24.1221V45.6608Z" fill="#360B92"/>
<path d="M21.1879 26.7064H19.0923V45.6608H21.1879V26.7064Z" fill="#45A9EA"/>
<path d="M46.8901 26.7064H44.7944V45.6608H46.8901V26.7064Z" fill="#45A9EA"/>
<path d="M37.2402 31.6247H28.7144V45.6965H37.2402V31.6247Z" fill="#2A365C"/>
<path d="M36.3817 32.4826H29.5718V45.6965H36.3817V32.4826Z" fill="#445279"/>
<path d="M35.9458 39.4901C35.9458 39.8851 35.6258 40.2052 35.2307 40.2052C34.8357 40.2052 34.5156 39.8851 34.5156 39.4901C34.5156 39.095 34.8357 38.775 35.2307 38.775C35.6258 38.775 35.9458 39.095 35.9458 39.4901Z" fill="#2A365C"/>
<path d="M38.2405 31.6247H27.714C27.363 31.6247 27.0786 31.3403 27.0786 30.9893V30.5743H38.8763V30.9893C38.8759 31.3403 38.5915 31.6247 38.2405 31.6247Z" fill="#2A365C"/>
<path d="M32.6011 33.4524H30.5V37.7302H32.6011V33.4524Z" fill="#CAE6FE"/>
<path d="M32.6011 33.6216V34.8872L30.5 36.9875V35.7218L32.6011 33.6216Z" fill="#FEFDFF"/>
<path opacity="0.2" d="M32.6011 33.4524H30.5V34.0573H32.6011V33.4524Z" fill="black"/>
<path d="M35.5665 33.4524H33.4653V37.7302H35.5665V33.4524Z" fill="#CAE6FE"/>
<path d="M35.5665 33.6216V34.8872L33.4653 36.9875V35.7218L35.5665 33.6216Z" fill="#FEFDFF"/>
<path opacity="0.2" d="M35.5665 33.4524H33.4653V34.0573H35.5665V33.4524Z" fill="black"/>
<path d="M64.4439 17.1129H0.759277V16.2117C0.759277 15.4496 1.37686 14.832 2.13899 14.832H63.0646C63.8267 14.832 64.4443 15.4496 64.4443 16.2117V17.1129H64.4439Z" fill="#2A365C"/>
<path d="M51.728 26.7255L48.3154 26.7162L44.7667 26.7064L32.9775 18.7588L21.1879 26.7064L17.6396 26.7162L14.2266 26.7255L32.9775 14.086L51.728 26.7255Z" fill="#445279"/>
<path d="M48.3155 26.7162L44.7668 26.7065L32.9775 18.7588L21.1879 26.7065L17.6396 26.7162L32.9775 16.3766L48.3155 26.7162Z" fill="#2A365C"/>
<path d="M14.3198 30.3602H9.29395V39.7393H14.3198V30.3602Z" fill="#CAE6FE"/>
<path d="M14.3195 30.3602H12.5481L9.30713 33.6012V36.2495L14.3195 31.2372V30.3602Z" fill="#FEFDFF"/>
<path d="M14.3195 34.3265L9.30713 39.3392V39.7393H10.2299L14.3195 35.6502V34.3265Z" fill="#FEFDFF"/>
<path d="M8.60645 29.6736V40.4256H14.319V29.6736H8.60645ZM9.29355 30.3598H13.6196V34.6952H9.29355V30.3598ZM9.29355 39.7389V35.4035H13.6196V39.7389H9.29355Z" fill="#445279"/>
<path opacity="0.2" d="M14.3186 29.7325H8.60645V30.8396H14.3186V29.7325Z" fill="black"/>
<path d="M14.9009 29.6735H8.02561C7.73525 29.6735 7.5 29.4383 7.5 29.1479V28.8046H15.4265V29.1479C15.4265 29.4383 15.1908 29.6735 14.9009 29.6735Z" fill="#2A365C"/>
<path d="M14.319 40.4256H8.60645V41.5259H14.319V40.4256Z" fill="#45A9EA"/>
<path d="M58.5474 30.3602H53.5215V39.7393H58.5474V30.3602Z" fill="#CAE6FE"/>
<path d="M58.547 30.3602H56.776L53.5347 33.6012V36.2495L58.547 31.2372V30.3602Z" fill="#FEFDFF"/>
<path d="M58.547 34.3265L53.5347 39.3392V39.7393H54.4574L58.547 35.6502V34.3265Z" fill="#FEFDFF"/>
<path d="M52.835 29.6736V40.4256H58.5475V29.6736H52.835ZM53.5221 30.3598H57.8481V34.6952H53.5221V30.3598ZM53.5221 39.7389V35.4035H57.8481V39.7389H53.5221Z" fill="#445279"/>
<path opacity="0.2" d="M58.5471 29.7325H52.835V30.8396H58.5471V29.7325Z" fill="black"/>
<path d="M59.1284 29.6735H52.2531C51.9628 29.6735 51.7275 29.4383 51.7275 29.1479V28.8046H59.654V29.1479C59.654 29.4383 59.4183 29.6735 59.1284 29.6735Z" fill="#2A365C"/>
<path d="M58.5475 40.4256H52.835V41.5259H58.5475V40.4256Z" fill="#45A9EA"/>
<path d="M56.6857 8.43659H9.59362C9.42789 8.43659 9.29395 8.30222 9.29395 8.13691V7.74525C9.29395 7.57952 9.42831 7.44557 9.59362 7.44557H56.6857C56.851 7.44557 56.9854 7.57994 56.9854 7.74525V8.13691C56.9854 8.30264 56.851 8.43659 56.6857 8.43659Z" fill="#2A365C"/>
<path d="M57.3156 11.0426H8.59802C8.43228 11.0426 8.29834 10.9082 8.29834 10.7429V10.3512C8.29834 10.1855 8.43271 10.0516 8.59802 10.0516H57.316C57.4818 10.0516 57.6157 10.1859 57.6157 10.3512V10.7429C57.6157 10.9082 57.4814 11.0426 57.3156 11.0426Z" fill="#2A365C"/>
<path d="M59.3547 13.6486H7.11169C6.94596 13.6486 6.81201 13.5142 6.81201 13.3489V12.9572C6.81201 12.7919 6.94638 12.6575 7.11169 12.6575H59.3547C59.5204 12.6575 59.6543 12.7919 59.6543 12.9572V13.3489C59.6548 13.5142 59.5204 13.6486 59.3547 13.6486Z" fill="#2A365C"/>
<path d="M18.0716 2.82367H11.4634V10.2779H18.0716V2.82367Z" fill="#45A9EA"/>
<path d="M18.0716 2.82367H11.4634V4.73874H18.0716V2.82367Z" fill="#45A9EA"/>
<path d="M19.4511 0.30159V1.18707C19.4511 1.31592 19.4359 1.44182 19.407 1.56262C19.2375 2.2849 18.5881 2.82364 17.8145 2.82364H11.7201C10.9461 2.82364 10.2967 2.2849 10.1276 1.56262C10.0988 1.44182 10.0835 1.31592 10.0835 1.18707V0.30159H19.4511Z" fill="#445279"/>
<path d="M19.4074 1.56265C19.2378 2.28493 18.5885 2.82368 17.8149 2.82368H11.7204C10.9464 2.82368 10.2971 2.28493 10.1279 1.56265H19.4074Z" fill="#2A365C"/>
<path d="M63.6626 47.3288H2.21779C1.93931 47.3288 1.71338 47.1028 1.71338 46.8244V46.1657C1.71338 45.8872 1.93931 45.6613 2.21779 45.6613H63.6626C63.9411 45.6613 64.1671 45.8872 64.1671 46.1657V46.8244C64.1671 47.1028 63.9416 47.3288 63.6626 47.3288Z" fill="#445279"/>
<path d="M65.2248 48.9696H0.657244C0.378758 48.9696 0.152832 48.7437 0.152832 48.4652V47.8065C0.152832 47.528 0.378758 47.3021 0.657244 47.3021H65.2248C65.5033 47.3021 65.7292 47.528 65.7292 47.8065V48.4652C65.7292 48.7441 65.5033 48.9696 65.2248 48.9696Z" fill="#2A365C"/>
<path d="M21.188 26.7259V29.259L33.1396 21.5661L44.7944 29.259L44.7669 26.7259L32.9776 18.7787L21.188 26.7259Z" fill="#45A9EA"/>
</svg>
