<svg width="24" height="14" viewBox="0 0 24 14" fill="none" xmlns="http://www.w3.org/2000/svg">
<path d="M22.7047 0.0382996H2.12005C1.43295 0.0382996 0.875977 0.59527 0.875977 1.28237C0.875977 1.96947 1.43295 2.52644 2.12005 2.52644H22.7047C23.3918 2.52644 23.9487 1.96947 23.9487 1.28237C23.9487 0.59527 23.3918 0.0382996 22.7047 0.0382996Z" fill="#CAE6FE"/>
<path d="M22.7047 5.42868H2.12005C1.43295 5.42868 0.875977 5.98565 0.875977 6.67275C0.875977 7.35985 1.43295 7.91682 2.12005 7.91682H22.7047C23.3918 7.91682 23.9487 7.35985 23.9487 6.67275C23.9487 5.98565 23.3918 5.42868 22.7047 5.42868Z" fill="#CAE6FE"/>
<path d="M22.7047 10.8187H2.12005C1.43295 10.8187 0.875977 11.3757 0.875977 12.0628C0.875977 12.7499 1.43295 13.3068 2.12005 13.3068H22.7047C23.3918 13.3068 23.9487 12.7499 23.9487 12.0628C23.9487 11.3757 23.3918 10.8187 22.7047 10.8187Z" fill="#CAE6FE"/>
</svg>
