<svg width="41" height="14" viewBox="0 0 41 14" fill="none" xmlns="http://www.w3.org/2000/svg">
<path d="M39.7419 2.81074H1.92718C1.24008 2.81074 0.683105 2.25377 0.683105 1.56667C0.683105 0.879571 1.24008 0.322601 1.92718 0.322601H39.7419C40.429 0.322601 40.986 0.879571 40.986 1.56667C40.986 2.25335 40.429 2.81074 39.7419 2.81074Z" fill="#CAE6FE"/>
<path d="M39.7419 8.20074H1.92718C1.24008 8.20074 0.683105 7.64376 0.683105 6.95666C0.683105 6.26956 1.24008 5.71259 1.92718 5.71259H39.7419C40.429 5.71259 40.986 6.26956 40.986 6.95666C40.986 7.64376 40.429 8.20074 39.7419 8.20074Z" fill="#CAE6FE"/>
<path d="M39.7419 13.5911H1.92718C1.24008 13.5911 0.683105 13.0342 0.683105 12.3471C0.683105 11.66 1.24008 11.103 1.92718 11.103H39.7419C40.429 11.103 40.986 11.66 40.986 12.3471C40.986 13.0342 40.429 13.5911 39.7419 13.5911Z" fill="#CAE6FE"/>
</svg>
