<svg width="38" height="37" viewBox="0 0 38 37" fill="none" xmlns="http://www.w3.org/2000/svg">
<path opacity="0.1" fill-rule="evenodd" clip-rule="evenodd" d="M18.9922 36C28.6572 36 36.4922 28.165 36.4922 18.5C36.4922 8.83502 28.6572 1 18.9922 1C9.3272 1 1.49219 8.83502 1.49219 18.5C1.49219 28.165 9.3272 36 18.9922 36Z" stroke="#0C111A" stroke-width="1.5"/>
<path d="M14.9757 14.9671C15.7951 14.9671 16.4593 14.3029 16.4593 13.4835C16.4593 12.6642 15.7951 12 14.9757 12C14.1564 12 13.4922 12.6642 13.4922 13.4835C13.4922 14.3029 14.1564 14.9671 14.9757 14.9671Z" fill="#0C111A"/>
<path d="M16.212 15.958H13.7394C13.603 15.958 13.4922 16.0688 13.4922 16.2053V23.623C13.4922 23.7595 13.603 23.8703 13.7394 23.8703H16.212C16.3485 23.8703 16.4593 23.7595 16.4593 23.623V16.2053C16.4593 16.0688 16.3485 15.958 16.212 15.958Z" fill="#0C111A"/>
<path d="M23.5802 15.5464C22.5234 15.1844 21.2016 15.5024 20.4089 16.0726C20.3817 15.9662 20.2848 15.8871 20.1695 15.8871H17.697C17.5605 15.8871 17.4497 15.9979 17.4497 16.1344V23.5521C17.4497 23.6886 17.5605 23.7994 17.697 23.7994H20.1695C20.306 23.7994 20.4168 23.6886 20.4168 23.5521V18.2212C20.8164 17.8771 21.3312 17.7673 21.7525 17.9463C22.161 18.1189 22.3949 18.5402 22.3949 19.1015V23.5521C22.3949 23.6886 22.5056 23.7994 22.6421 23.7994H25.1147C25.2512 23.7994 25.362 23.6886 25.362 23.5521V18.6035C25.3338 16.5715 24.3779 15.8194 23.5802 15.5464Z" fill="#0C111A"/>
</svg>
