<svg width="38" height="37" viewBox="0 0 38 37" fill="none" xmlns="http://www.w3.org/2000/svg">
<path opacity="0.1" fill-rule="evenodd" clip-rule="evenodd" d="M18.9922 36C28.6572 36 36.4922 28.165 36.4922 18.5C36.4922 8.83502 28.6572 1 18.9922 1C9.3272 1 1.49219 8.83502 1.49219 18.5C1.49219 28.165 9.3272 36 18.9922 36Z" stroke="#0C111A" stroke-width="1.5"/>
<path d="M24.4649 15.5182C24.474 15.8455 24.4808 16.1364 24.4854 16.3909C24.4899 16.6455 24.4922 17.1818 24.4922 18C24.4922 18.8182 24.4899 19.3545 24.4854 19.6091C24.4808 19.8636 24.474 20.15 24.4649 20.4682C24.4467 20.7955 24.4126 21.0727 24.3626 21.3C24.3126 21.5273 24.2513 21.7364 24.1786 21.9273C24.1058 22.1273 24.0149 22.3136 23.9058 22.4864C23.7967 22.6591 23.6558 22.8273 23.4831 22.9909C23.3195 23.1636 23.1513 23.3045 22.9785 23.4136C22.8058 23.5227 22.6195 23.6136 22.4195 23.6864C22.2285 23.7591 22.0195 23.8205 21.7922 23.8705C21.5649 23.9205 21.2922 23.9545 20.974 23.9727C20.6467 23.9818 20.3558 23.9886 20.1013 23.9932C19.8467 23.9977 19.3104 24 18.4922 24C17.674 24 17.1376 23.9977 16.8831 23.9932C16.6285 23.9886 16.3422 23.9818 16.024 23.9727C15.6967 23.9545 15.4195 23.9205 15.1922 23.8705C14.9649 23.8205 14.7558 23.7591 14.5649 23.6864C14.3649 23.6136 14.1786 23.5227 14.0058 23.4136C13.8331 23.3045 13.6649 23.1636 13.5013 22.9909C13.3285 22.8273 13.1876 22.6591 13.0786 22.4864C12.9695 22.3136 12.8786 22.1273 12.8058 21.9273C12.7331 21.7364 12.6717 21.5273 12.6217 21.3C12.5717 21.0727 12.5376 20.8 12.5195 20.4818C12.5104 20.1545 12.5035 19.8636 12.499 19.6091C12.4945 19.3545 12.4922 18.8182 12.4922 18C12.4922 17.1818 12.4945 16.6455 12.499 16.3909C12.5035 16.1364 12.5104 15.85 12.5195 15.5318C12.5376 15.2045 12.5717 14.9273 12.6217 14.7C12.6717 14.4727 12.7331 14.2636 12.8058 14.0727C12.8786 13.8727 12.9695 13.6864 13.0786 13.5136C13.1876 13.3409 13.3285 13.1727 13.5013 13.0091C13.6649 12.8364 13.8331 12.6955 14.0058 12.5864C14.1786 12.4773 14.3649 12.3864 14.5649 12.3136C14.7558 12.2409 14.9649 12.1795 15.1922 12.1295C15.4195 12.0795 15.6922 12.0455 16.0104 12.0273C16.3376 12.0182 16.6285 12.0114 16.8831 12.0068C17.1376 12.0023 17.674 12 18.4922 12C19.3104 12 19.8467 12.0023 20.1013 12.0068C20.3558 12.0114 20.6422 12.0182 20.9604 12.0273C21.2876 12.0455 21.5649 12.0795 21.7922 12.1295C22.0195 12.1795 22.2285 12.2409 22.4195 12.3136C22.6195 12.3864 22.8058 12.4773 22.9785 12.5864C23.1513 12.6955 23.3195 12.8364 23.4831 13.0091C23.6558 13.1727 23.7967 13.3409 23.9058 13.5136C24.0149 13.6864 24.1058 13.8727 24.1786 14.0727C24.2513 14.2636 24.3126 14.4727 24.3626 14.7C24.4126 14.9273 24.4467 15.2 24.4649 15.5182ZM23.374 20.4273C23.3922 20.1091 23.4036 19.825 23.4081 19.575C23.4126 19.325 23.4149 18.8 23.4149 18C23.4149 17.2 23.4126 16.675 23.4081 16.425C23.4036 16.175 23.3922 15.8909 23.374 15.5727C23.3649 15.2818 23.3399 15.05 23.299 14.8773C23.2581 14.7045 23.2149 14.5636 23.1695 14.4545C23.1149 14.3182 23.0536 14.1955 22.9854 14.0864C22.9172 13.9773 22.8286 13.8727 22.7195 13.7727C22.6195 13.6636 22.5149 13.575 22.4058 13.5068C22.2967 13.4386 22.174 13.3773 22.0376 13.3227C21.9286 13.2773 21.7876 13.2341 21.6149 13.1932C21.4422 13.1523 21.2104 13.1273 20.9195 13.1182C20.6013 13.1 20.3172 13.0886 20.0672 13.0841C19.8172 13.0795 19.2922 13.0773 18.4922 13.0773C17.6922 13.0773 17.1672 13.0795 16.9172 13.0841C16.6672 13.0886 16.3831 13.1 16.0649 13.1182C15.774 13.1273 15.5422 13.1523 15.3695 13.1932C15.1967 13.2341 15.0558 13.2773 14.9467 13.3227C14.8104 13.3773 14.6876 13.4386 14.5786 13.5068C14.4695 13.575 14.3649 13.6636 14.2649 13.7727C14.1558 13.8727 14.0672 13.9773 13.999 14.0864C13.9308 14.1955 13.8695 14.3182 13.8149 14.4545C13.7695 14.5636 13.7263 14.7045 13.6854 14.8773C13.6445 15.05 13.6195 15.2818 13.6104 15.5727C13.5922 15.8909 13.5808 16.175 13.5763 16.425C13.5717 16.675 13.5695 17.2 13.5695 18C13.5695 18.8 13.5717 19.325 13.5763 19.575C13.5808 19.825 13.5922 20.1091 13.6104 20.4273C13.6195 20.7182 13.6445 20.95 13.6854 21.1227C13.7263 21.2955 13.7695 21.4364 13.8149 21.5455C13.8695 21.6818 13.9308 21.8045 13.999 21.9136C14.0672 22.0227 14.1558 22.1273 14.2649 22.2273C14.3649 22.3364 14.4695 22.425 14.5786 22.4932C14.6876 22.5614 14.8104 22.6227 14.9467 22.6773C15.0558 22.7227 15.1967 22.7659 15.3695 22.8068C15.5422 22.8477 15.774 22.8727 16.0649 22.8818C16.3831 22.9 16.6672 22.9114 16.9172 22.9159C17.1672 22.9205 17.6922 22.9227 18.4922 22.9227C19.2922 22.9227 19.8172 22.9205 20.0672 22.9159C20.3172 22.9114 20.6013 22.9 20.9195 22.8818C21.2104 22.8727 21.4422 22.8477 21.6149 22.8068C21.7876 22.7659 21.9286 22.7227 22.0376 22.6773C22.174 22.6227 22.2967 22.5614 22.4058 22.4932C22.5149 22.425 22.6195 22.3364 22.7195 22.2273C22.8286 22.1273 22.9172 22.0227 22.9854 21.9136C23.0536 21.8045 23.1149 21.6818 23.1695 21.5455C23.2149 21.4364 23.2581 21.2955 23.299 21.1227C23.3399 20.95 23.3649 20.7182 23.374 20.4273ZM18.4922 14.9182C18.9195 14.9182 19.3195 15 19.6922 15.1636C20.0649 15.3182 20.3922 15.5364 20.674 15.8182C20.9558 16.1 21.174 16.4273 21.3286 16.8C21.4922 17.1727 21.574 17.5727 21.574 18C21.574 18.4273 21.4922 18.8273 21.3286 19.2C21.174 19.5727 20.9558 19.9 20.674 20.1818C20.3922 20.4636 20.0649 20.6818 19.6922 20.8364C19.3195 21 18.9195 21.0818 18.4922 21.0818C18.0649 21.0818 17.6649 21 17.2922 20.8364C16.9195 20.6818 16.5922 20.4636 16.3104 20.1818C16.0286 19.9 15.8104 19.5727 15.6558 19.2C15.4922 18.8273 15.4104 18.4273 15.4104 18C15.4104 17.5727 15.4922 17.1727 15.6558 16.8C15.8104 16.4273 16.0286 16.1 16.3104 15.8182C16.5922 15.5364 16.9195 15.3182 17.2922 15.1636C17.6649 15 18.0649 14.9182 18.4922 14.9182ZM18.4922 20.0045C19.0467 20.0045 19.5195 19.8091 19.9104 19.4182C20.3013 19.0273 20.4967 18.5545 20.4967 18C20.4967 17.4455 20.3013 16.9727 19.9104 16.5818C19.5195 16.1909 19.0467 15.9955 18.4922 15.9955C17.9376 15.9955 17.4649 16.1909 17.074 16.5818C16.6831 16.9727 16.4876 17.4455 16.4876 18C16.4876 18.5545 16.6831 19.0273 17.074 19.4182C17.4649 19.8091 17.9376 20.0045 18.4922 20.0045ZM22.3922 14.6318C22.4376 14.8227 22.4081 15.0023 22.3036 15.1705C22.199 15.3386 22.0513 15.4455 21.8604 15.4909C21.6695 15.5364 21.4899 15.5068 21.3217 15.4023C21.1535 15.2977 21.0467 15.15 21.0013 14.9591C20.9558 14.7682 20.9854 14.5886 21.0899 14.4205C21.1945 14.2523 21.3422 14.1455 21.5331 14.1C21.724 14.0455 21.9035 14.0727 22.0717 14.1818C22.2399 14.2909 22.3467 14.4409 22.3922 14.6318Z" fill="#0C111A"/>
</svg>
