<svg width="38" height="37" viewBox="0 0 38 37" fill="none" xmlns="http://www.w3.org/2000/svg">
<path opacity="0.1" fill-rule="evenodd" clip-rule="evenodd" d="M18.9922 36C28.6572 36 36.4922 28.165 36.4922 18.5C36.4922 8.83502 28.6572 1 18.9922 1C9.3272 1 1.49219 8.83502 1.49219 18.5C1.49219 28.165 9.3272 36 18.9922 36Z" stroke="#0C111A" stroke-width="1.5"/>
<path d="M24.7124 15.2647C24.6312 15.1729 24.5003 15.1498 24.3929 15.2064C24.3261 15.2416 24.2005 15.2878 24.0514 15.3334C24.2395 15.0762 24.3907 14.7882 24.4575 14.5293C24.4864 14.4177 24.4442 14.3001 24.3522 14.2336C24.2603 14.1677 24.138 14.1677 24.0461 14.2336C23.9013 14.3375 23.2023 14.6497 22.7604 14.7508C21.7618 13.8511 20.5996 13.7577 19.3914 14.4831C18.4093 15.0729 18.1956 16.2721 18.2372 17.0031C15.9893 16.7805 14.592 15.5593 13.8054 14.5485C13.7504 14.4776 13.6617 14.4403 13.5783 14.4458C13.4907 14.4524 13.4116 14.5024 13.3667 14.5799C12.9948 15.2257 12.8917 15.9396 13.0696 16.6447C13.1669 17.0295 13.3368 17.3686 13.534 17.6434C13.4394 17.5956 13.348 17.5357 13.262 17.4642C13.1829 17.3972 13.0723 17.3845 12.9788 17.429C12.8858 17.4747 12.8265 17.5714 12.8265 17.6775C12.8265 18.8882 13.5628 19.6962 14.2505 20.1183C14.1394 20.1045 14.0234 20.0792 13.9064 20.0424C13.806 20.0111 13.697 20.0424 13.6275 20.1238C13.558 20.2046 13.5415 20.32 13.5847 20.4184C13.9711 21.2972 14.7031 21.9017 15.6088 22.121C14.818 22.5986 13.7595 22.8328 12.7902 22.7179C12.6646 22.6998 12.5449 22.7817 12.5054 22.9059C12.4658 23.0301 12.5177 23.1664 12.6283 23.2301C14.0988 24.0793 15.4282 24.3827 16.5771 24.3827C18.249 24.3827 19.5394 23.7407 20.3249 23.2038C22.4425 21.7583 23.7623 19.163 23.5785 16.841C23.9178 16.5832 24.4255 16.1072 24.7402 15.5955C24.8054 15.4922 24.7936 15.3559 24.7124 15.2647Z" fill="#0C111A"/>
</svg>
