<svg width="47" height="43" viewBox="0 0 47 43" fill="none" xmlns="http://www.w3.org/2000/svg">
<path d="M38.5709 18.7528C29.758 18.829 21.5358 21.8302 14.5741 30.7271C13.875 31.626 13.0872 32.9057 12.9198 34.1854C11.9647 41.5588 7.29725 44.6819 3.26003 40.3858C0.640757 37.5979 -0.531009 33.4389 0.227201 28.8228C0.827861 25.1818 1.88147 21.3427 3.44712 18.5548C11.689 3.83825 22.0873 -1.82896 34.5042 2.19294C36.769 2.9242 39.0338 3.91444 41.1804 5.23984C42.7263 6.18438 44.3609 7.49453 45.4244 9.36837C46.3795 11.0442 46.9211 13.695 46.9999 15.9649C47.0196 16.62 44.8631 17.7778 43.6421 18.1434C41.9878 18.6157 40.2646 18.57 38.5709 18.7528Z" fill="#F7F7F7" fill-opacity="0.5"/>
</svg>
