<svg width="64" height="78" viewBox="0 0 64 78" fill="none" xmlns="http://www.w3.org/2000/svg">
<path d="M43.1774 52.9416C43.7204 46.3436 43.7994 39.9272 44.836 33.9043C46.2675 25.5963 48.39 17.5456 50.2954 9.4343C50.6508 7.921 51.3221 6.52874 51.9836 5.24244C54.0568 1.12627 57.0383 -0.250826 59.8322 1.4592C62.5965 3.15409 64.3242 7.39132 63.949 12.4306C63.7121 15.5329 63.2579 18.6957 62.5274 21.6163C58.8351 36.2045 56.6237 51.2013 56.2485 66.9244C56.0412 75.6561 51.7269 78.7584 46.3662 76.1101C42.6443 74.279 38.4683 73.6132 34.5489 73.8856C26.8583 74.4304 19.2071 76.095 11.5264 77.1089C9.04838 77.4267 6.48153 77.6234 4.04304 77.0181C0.291509 76.0949 -1.08074 70.7076 0.91349 65.7137C2.78925 61.0225 5.90894 59.146 9.11749 57.7689C19.3947 53.3501 29.899 52.0487 40.5316 52.6994C41.4004 52.7297 42.279 52.8508 43.1774 52.9416Z" fill="#EEE7FD"/>
</svg>
