<svg width="323" height="502" viewBox="0 0 323 502" fill="none" xmlns="http://www.w3.org/2000/svg">
<path d="M220.844 185.758C230.696 186.216 240.011 186.231 249.276 187.178C266.554 188.948 283.604 193.009 299.718 203.222C304.918 206.52 310.087 210.687 314.521 215.954C324.214 227.45 325.546 243.769 318.776 259.448C315.227 267.676 310.604 274.378 305.226 279.568C278.882 304.941 250.519 320.161 219.025 319.016C210.296 318.695 201.727 316.543 193.655 311.23C182.302 303.75 174.229 291.644 171.754 272.363C170.491 262.516 170.879 252.562 172.987 243.174C175.363 232.594 178.454 222.397 181.258 212.046C181.636 210.657 182.162 209.375 182.908 207.207C181.278 207.558 180.105 207.772 178.942 208.077C142.477 217.847 107.931 235.8 76.2876 265.676C59.7055 281.324 43.869 298.559 31.2932 321.855C25.8951 331.855 21.3321 342.602 18.4292 354.891C12.1861 381.302 18.7076 406.766 35.0809 419.345C36.2738 420.261 38.1428 420.536 39.3258 419.773C52.18 411.483 65.6902 408.17 79.4589 407.025C88.5452 406.277 97.6714 406.125 106.768 406.201C109.303 406.216 111.917 407.636 114.333 409.041C117.554 410.918 119.86 414.491 120.049 420.124C120.238 425.864 117.952 429.39 114.85 431.726C104.392 439.588 93.3767 444.656 81.815 447.038C68.8118 449.71 55.8881 449.679 43.0141 445.405C41.7813 444.992 40.3001 445.313 39.0872 445.969C35.8563 447.725 32.7049 449.832 29.5336 451.832C22.5548 456.213 16.9778 463.235 12.882 472.96C9.55162 480.868 6.29086 488.852 2.99035 496.79C2.39387 498.225 1.72781 499.584 0.664085 501.935C-1.42359 486.867 1.73775 474.777 5.60492 462.747C9.46214 450.732 14.1644 439.954 22.1671 432.657C21.0835 431.421 20.318 430.551 19.5526 429.68C1.77751 409.376 -4.05802 377.195 4.31256 345.64C7.76219 332.649 12.544 320.833 18.9163 310.879C25.3583 300.819 31.9096 290.697 39.2065 282.209C83.0874 231.083 132.704 201.467 187.203 190.643C189.648 190.154 191.209 188.628 192.79 185.788C202.711 167.988 212.812 150.432 222.793 132.693C229.523 120.739 236.472 109.015 242.675 96.4355C247.01 87.6575 250.698 77.9635 253.869 68.071C257.846 55.6749 255.649 46.6832 247.845 39.676C242.258 34.6534 236.054 32.5925 229.712 32.0429C211.996 30.4705 195.166 35.7832 179.558 48.8663C169.617 57.2016 162.031 69.0939 157.647 85.5202C154.734 96.4508 155.281 106.542 159.566 116.343C163.035 124.281 166.455 132.265 169.656 140.463C170.372 142.31 170.77 145.944 170.084 147.211C169.249 148.768 166.992 149.638 165.59 149.165C153.551 145.119 143.61 135.96 137.099 119.472C132.734 108.42 132.357 96.3745 134.385 84.07C136.89 68.8802 142.189 56.1482 149.247 45.0192C162.568 23.9977 179.24 12.6702 197.472 5.96836C213.11 0.228289 228.837 -1.90898 244.673 4.16694C251.861 6.91485 258.542 11.3878 264.188 18.8988C275.372 33.7833 278.931 52.2858 274.756 74.0248C272.072 88.0086 267.33 100.588 261.604 112.053C254.843 125.563 247.626 138.555 240.438 151.531C234.702 161.882 228.708 171.896 222.842 182.063C222.176 183.147 221.6 184.323 220.844 185.758ZM230.636 202.184C225.218 202.184 219.8 201.986 214.392 202.322C213.09 202.398 211.39 203.757 210.644 205.36C207.294 212.58 203.735 219.725 201.19 227.618C198.297 236.609 195.891 246.166 194.231 255.875C192.372 266.79 194.927 273.905 201.399 279.309C203.208 280.82 205.157 282.301 207.145 282.881C212.712 284.514 218.329 286.667 223.946 286.835C249.306 287.568 272.181 274.82 293.595 255.02C295.891 252.898 297.959 250.059 299.897 247.189C305.922 238.273 306.001 233.602 298.993 226.656C293.445 221.16 287.312 216.626 281.069 213.313C264.785 204.657 247.775 202.367 230.636 202.184Z" fill="#EEE7FD"/>
</svg>
