<svg width="101" height="40" viewBox="0 0 101 40" fill="none" xmlns="http://www.w3.org/2000/svg">
<path d="M15.0311 19.1507C16.8078 17.3394 18.305 15.8904 19.7523 14.3357C21.5989 12.3434 23.3256 10.0792 25.242 8.26797C30.1928 3.58887 34.8141 5.43036 37.6688 13.0226C37.9782 13.8377 38.2876 14.6678 38.7967 16.0111C39.8746 14.4263 40.743 12.8867 41.7711 11.6641C43.957 9.03776 46.063 6.0794 48.5084 4.16248C52.2215 1.27955 56.1241 2.87948 59.1086 7.72462C60.2065 9.5057 61.1947 11.4528 62.4323 13.7018C64.199 10.9246 65.7062 8.19256 67.4529 5.8681C72.4835 -0.863778 77.3743 -0.727988 82.1054 6.4718C84.6407 10.3358 87.6451 11.8452 91.0687 12.5094C94.3326 13.1433 97.5664 14.1848 100.81 15.0301C100.87 15.4678 100.94 15.9206 101 16.3584C100.052 17.6866 99.2433 19.3771 98.1454 20.2979C91.2583 26.1392 84.0718 29.6561 76.0668 26.0788C75.3481 25.7619 74.4099 26.3806 73.6213 26.758C73.2221 26.9542 72.9127 27.5882 72.5533 28.0108C65.0973 37.0068 60.1266 36.9464 52.6606 27.7844C52.3811 27.4523 52.0717 27.1806 51.6625 26.7731C49.816 28.7806 48.0293 30.8485 46.1529 32.7352C40.6033 38.3048 35.7623 38.0482 30.6918 31.6786C29.4042 30.0636 28.5857 29.9881 27.1983 31.3466C24.693 33.7767 22.1279 36.2671 19.3631 37.8822C9.3618 43.6933 -1.34813 30.4711 0.139079 14.3509C0.628162 9.03781 3.21332 5.06807 6.50715 4.58506C9.80097 4.10206 12.6756 7.22657 13.8035 12.5849C14.2327 14.5471 14.552 16.5093 15.0311 19.1507Z" fill="#EEE7FD"/>
</svg>
