<svg width="83" height="41" viewBox="0 0 83 41" fill="none" xmlns="http://www.w3.org/2000/svg">
<path d="M37.2645 20.9535C38.8748 18.1652 40.0251 16.3166 41.0653 14.3294C42.5455 11.5103 43.7257 8.24443 45.4061 5.76423C50.187 -1.29124 56.6883 0.218462 60.319 8.76822C61.5593 11.6798 62.9395 16.101 64.6199 16.5477C67.6405 17.3642 70.9611 15.8545 74.1117 14.9764C75.502 14.5913 76.7523 13.0816 78.1425 12.5578C81.4632 11.3254 83.6136 14.3602 82.8434 19.5055C82.4533 22.1089 81.5032 24.7432 80.383 26.8075C74.1117 38.3612 61.0792 40.7489 53.1076 31.9835C52.7375 31.583 52.3675 31.1979 52.0174 30.8281C38.8148 43.2137 34.954 43.4448 26.0823 32.3378C24.2719 34.0324 22.4916 35.9888 20.5612 37.4523C12.3096 43.7529 4.51807 38.9465 1.6075 25.498C0.647307 21.0614 0.127229 16.2396 0.0072057 11.5411C-0.162828 5.22506 2.69768 0.726832 6.32839 0.541973C9.87909 0.372518 12.5396 4.23914 13.1098 10.4781C13.3198 12.7735 13.4798 15.0688 13.7599 18.5658C15.2602 16.0085 16.2904 14.3448 17.2406 12.5886C18.4608 10.3395 19.481 7.79771 20.8213 5.73344C25.4822 -1.49149 32.2535 0.665199 34.754 10.1084C35.5942 13.2665 36.2443 16.5323 37.2645 20.9535Z" fill="#EEE7FD"/>
</svg>
