<svg width="308" height="360" viewBox="0 0 308 360" fill="none" xmlns="http://www.w3.org/2000/svg">
<path d="M19.3321 137.523C24.1881 136.529 28.1884 135.565 32.1986 134.938C45.0949 132.95 55.593 139.801 63.693 155.369C70.0218 167.543 74.5296 181.321 78.3606 195.59C82.1818 209.843 85.3561 224.509 89.2966 238.67C99.6455 275.832 115.935 304.338 141.061 318.896C159.47 329.571 178.387 330.198 197.363 322.811C230.34 309.996 255.158 280.358 271.626 234.862C280.751 209.644 284.97 182.285 281.667 153.29C280.662 144.496 278.841 135.687 276.413 127.567C267.676 98.3421 254.6 74.1946 237.833 55.1091C223.076 38.3022 206.388 28.9123 187.86 28.9735C182.496 28.9888 176.984 30.1358 171.799 32.2921C149.818 41.4372 138.305 64.9271 134.901 98.5256C134.115 106.249 134.175 114.354 134.653 122.168C136.772 156.746 155.41 178.355 178.387 173.996C187.591 172.253 196.089 167.13 203.712 158.978C209.642 152.632 213.404 144.007 213.782 132.644C214.08 123.805 211.085 118.85 205.344 118.024C200.587 117.351 197.184 122.581 197.592 129.907C197.741 132.537 197.741 135.183 197.91 137.813C198.199 142.355 196.597 144.466 193.97 145.245C189.532 146.576 185.86 144.16 183.113 138.991C178.436 130.197 177.392 120.333 180.188 109.689C185.452 89.6252 199.383 78.5072 213.653 82.9728C232.201 88.7688 242.241 113.604 238.102 143.9C236.032 159.024 231.465 172.513 223.703 182.224C204.219 206.646 181.999 217.092 157.092 207.946C133.747 199.367 117.925 170.846 114.711 133.883C112.751 111.31 114.641 89.5487 120.284 68.5363C130.145 31.8333 148.206 10.6985 173.332 3.43434C195.532 -2.97338 216.697 3.37317 237.146 16.7698C269.357 37.874 290.762 74.944 302.733 124.814C310.753 158.229 308.992 192.026 301.638 225.365C293.23 263.444 278.363 294.275 256.949 317.275C221.981 354.835 183.651 369.042 141.668 353.565C117.895 344.803 99.4067 323.53 85.5252 292.776C77.674 275.373 72.2707 256.272 68.4993 235.871C65.4842 219.6 61.9019 203.557 58.0907 187.683C56.5185 181.138 53.8815 175.113 51.344 169.24C48.2195 162.007 43.5027 158.673 37.8805 158.841C29.4421 159.101 21.372 161.487 14.1676 168.858C10.2569 172.864 6.12728 172.757 3.06242 168.934C-0.0820543 165.019 -0.798519 159.33 0.883177 152.265C1.44043 149.925 1.90814 147.524 2.27632 145.093C5.19193 125.915 11.252 109.139 18.9938 93.6778C21.5412 88.5853 25.2529 87.2854 28.3277 90.0534C31.3627 92.7908 32.4872 98.5104 30.8453 104.337C29.7706 108.145 28.258 111.647 26.9843 115.317C24.4966 122.413 22.0786 129.524 19.3321 137.523Z" fill="#F7F7F7" fill-opacity="0.5"/>
</svg>
