<svg width="28" height="40" viewBox="0 0 28 40" fill="none" xmlns="http://www.w3.org/2000/svg">
<path d="M28 20.061C27.7194 33.5826 18.3288 43.0091 10.5416 37.415C3.73667 32.5318 -1.41464 17.1249 0.349235 6.1221C0.700006 3.97409 2.1933 1.11523 3.42601 0.759801C4.65872 0.404375 6.30231 2.61417 7.59515 4.06678C8.01607 4.53038 7.78558 6.19937 8.04615 7.18838C9.20871 11.4999 10.241 15.9349 11.7242 19.9682C12.6863 22.5799 14.2298 22.0545 15.0014 19.3038C15.6829 16.8931 16.0738 14.266 16.625 11.7625C17.3767 8.36282 18.2786 4.90125 21.0046 4.68491C23.7407 4.46856 25.3642 7.37381 26.3163 10.8508C27.1281 13.756 27.4588 16.9703 28 20.061Z" fill="#EEE7FD"/>
</svg>
